<svg width="24" height="24" viewBox="0 0 24 24" fill="none" xmlns="http://www.w3.org/2000/svg">
<g id="Check-1">
<g id="tick-circle">
<path id="Subtract" fill-rule="evenodd" clip-rule="evenodd" d="M1 12C1 5.94772 5.94772 1 12 1C18.0523 1 23 5.94772 23 12C23 18.0523 18.0523 23 12 23C5.94772 23 1 18.0523 1 12ZM16.9565 9.87765C17.3474 9.48747 17.3479 8.85431 16.9577 8.46344C16.5676 8.07257 15.9344 8.07201 15.5435 8.46219L10.5806 13.4163L8.45711 11.2928C8.06658 10.9023 7.43342 10.9023 7.04289 11.2928C6.65237 11.6833 6.65237 12.3165 7.04289 12.707L9.87289 15.537C10.2632 15.9273 10.8959 15.9276 11.2865 15.5377L16.9565 9.87765Z" fill="#61626B"/>
</g>
</g>
</svg>
