<svg width="40" height="41" viewBox="0 0 40 41" fill="none" xmlns="http://www.w3.org/2000/svg">
<path d="M15.0002 37.1693H25.0002C33.3335 37.1693 36.6668 33.8359 36.6668 25.5026V15.5026C36.6668 7.16927 33.3335 3.83594 25.0002 3.83594H15.0002C6.66683 3.83594 3.3335 7.16927 3.3335 15.5026V25.5026C3.3335 33.8359 6.66683 37.1693 15.0002 37.1693Z" fill="#78F5B7" stroke="#78F5B7" stroke-width="3.6" stroke-linecap="round" stroke-linejoin="round"/>
<path d="M12.8647 10.082V30.9154" stroke="#1B1C1E" stroke-width="2.08333" stroke-miterlimit="10" stroke-linecap="round" stroke-linejoin="round"/>
<path d="M12.8647 12.168H24.5314C27.3439 12.168 27.9689 13.7305 25.9897 15.7096L24.7397 16.9596C23.9064 17.793 23.9064 19.1471 24.7397 19.8763L25.9897 21.1263C27.9689 23.1055 27.2397 24.668 24.5314 24.668H12.8647" fill="#1B1C1E"/>
<path d="M12.8647 12.168H24.5314C27.3439 12.168 27.9689 13.7305 25.9897 15.7096L24.7397 16.9596C23.9064 17.793 23.9064 19.1471 24.7397 19.8763L25.9897 21.1263C27.9689 23.1055 27.2397 24.668 24.5314 24.668H12.8647" stroke="#1B1C1E" stroke-width="2.08333" stroke-miterlimit="10" stroke-linecap="round" stroke-linejoin="round"/>
</svg>
