<svg width="16" height="16" viewBox="0 0 16 16" fill="none" xmlns="http://www.w3.org/2000/svg">
<path d="M14 8C14 11.3137 11.3137 14 8 14C4.68629 14 2 11.3137 2 8C2 4.68629 4.68629 2 8 2C11.3137 2 14 4.68629 14 8Z" fill="black"/>
<path d="M8 0C3.592 0 0 3.592 0 8C0 12.408 3.592 16 8 16C12.408 16 16 12.408 16 8C16 3.592 12.408 0 8 0ZM10.688 9.84C10.92 10.072 10.92 10.456 10.688 10.688C10.568 10.808 10.416 10.864 10.264 10.864C10.112 10.864 9.96 10.808 9.84 10.688L8 8.848L6.16 10.688C6.04 10.808 5.888 10.864 5.736 10.864C5.584 10.864 5.432 10.808 5.312 10.688C5.08 10.456 5.08 10.072 5.312 9.84L7.152 8L5.312 6.16C5.08 5.928 5.08 5.544 5.312 5.312C5.544 5.08 5.928 5.08 6.16 5.312L8 7.152L9.84 5.312C10.072 5.08 10.456 5.08 10.688 5.312C10.92 5.544 10.92 5.928 10.688 6.16L8.848 8L10.688 9.84Z" fill="#CACACF"/>
</svg>
