<svg width="208" height="2" viewBox="0 0 208 2" fill="none" xmlns="http://www.w3.org/2000/svg">
<g id="Separator Container">
<path id="Separator" fill-rule="evenodd" clip-rule="evenodd" d="M36 0.95C36 0.701472 36.2015 0.5 36.45 0.5H36.9503C37.1988 0.5 37.4003 0.701472 37.4003 0.95C37.4003 1.19853 37.1988 1.4 36.9503 1.4H36.45C36.2015 1.4 36 1.19853 36 0.95ZM38.5015 0.95C38.5015 0.701472 38.7029 0.5 38.9515 0.5H39.952C40.2006 0.5 40.402 0.701472 40.402 0.95C40.402 1.19853 40.2006 1.4 39.952 1.4H38.9515C38.7029 1.4 38.5015 1.19853 38.5015 0.95ZM41.5032 0.95C41.5032 0.701472 41.7047 0.5 41.9532 0.5H42.9538C43.2023 0.5 43.4038 0.701472 43.4038 0.95C43.4038 1.19853 43.2023 1.4 42.9538 1.4H41.9532C41.7047 1.4 41.5032 1.19853 41.5032 0.95ZM44.505 0.95C44.505 0.701472 44.7064 0.5 44.955 0.5H45.9556C46.2041 0.5 46.4056 0.701472 46.4056 0.95C46.4056 1.19853 46.2041 1.4 45.9556 1.4H44.955C44.7064 1.4 44.505 1.19853 44.505 0.95ZM47.5067 0.95C47.5067 0.701472 47.7082 0.5 47.9567 0.5H48.9573C49.2058 0.5 49.4073 0.701472 49.4073 0.95C49.4073 1.19853 49.2058 1.4 48.9573 1.4H47.9567C47.7082 1.4 47.5067 1.19853 47.5067 0.95ZM50.5085 0.95C50.5085 0.701472 50.71 0.5 50.9585 0.5H51.9591C52.2076 0.5 52.4091 0.701472 52.4091 0.95C52.4091 1.19853 52.2076 1.4 51.9591 1.4H50.9585C50.71 1.4 50.5085 1.19853 50.5085 0.95ZM53.5102 0.95C53.5102 0.701472 53.7117 0.5 53.9602 0.5H54.9608C55.2093 0.5 55.4108 0.701472 55.4108 0.95C55.4108 1.19853 55.2093 1.4 54.9608 1.4H53.9602C53.7117 1.4 53.5102 1.19853 53.5102 0.95ZM56.512 0.95C56.512 0.701472 56.7135 0.5 56.962 0.5H57.9626C58.2111 0.5 58.4126 0.701472 58.4126 0.95C58.4126 1.19853 58.2111 1.4 57.9626 1.4H56.962C56.7135 1.4 56.512 1.19853 56.512 0.95ZM59.5137 0.95C59.5137 0.701472 59.7152 0.5 59.9637 0.5H60.9643C61.2129 0.5 61.4143 0.701472 61.4143 0.95C61.4143 1.19853 61.2129 1.4 60.9643 1.4H59.9637C59.7152 1.4 59.5137 1.19853 59.5137 0.95ZM62.5155 0.95C62.5155 0.701472 62.717 0.5 62.9655 0.5H63.9661C64.2146 0.5 64.4161 0.701472 64.4161 0.95C64.4161 1.19853 64.2146 1.4 63.9661 1.4H62.9655C62.717 1.4 62.5155 1.19853 62.5155 0.95ZM65.5173 0.95C65.5173 0.701472 65.7187 0.5 65.9673 0.5H66.9678C67.2164 0.5 67.4178 0.701472 67.4178 0.95C67.4178 1.19853 67.2164 1.4 66.9678 1.4H65.9673C65.7187 1.4 65.5173 1.19853 65.5173 0.95ZM68.519 0.95C68.519 0.701472 68.7205 0.5 68.969 0.5H69.9696C70.2181 0.5 70.4196 0.701472 70.4196 0.95C70.4196 1.19853 70.2181 1.4 69.9696 1.4H68.969C68.7205 1.4 68.519 1.19853 68.519 0.95ZM71.5208 0.95C71.5208 0.701472 71.7222 0.5 71.9708 0.5H72.9713C73.2199 0.5 73.4213 0.701472 73.4213 0.95C73.4213 1.19853 73.2199 1.4 72.9713 1.4H71.9708C71.7222 1.4 71.5208 1.19853 71.5208 0.95ZM74.5225 0.95C74.5225 0.701472 74.724 0.5 74.9725 0.5H75.9731C76.2216 0.5 76.4231 0.701472 76.4231 0.95C76.4231 1.19853 76.2216 1.4 75.9731 1.4H74.9725C74.724 1.4 74.5225 1.19853 74.5225 0.95ZM77.5243 0.95C77.5243 0.701472 77.7257 0.5 77.9743 0.5H78.9749C79.2234 0.5 79.4249 0.701472 79.4249 0.95C79.4249 1.19853 79.2234 1.4 78.9749 1.4H77.9743C77.7257 1.4 77.5243 1.19853 77.5243 0.95ZM80.526 0.95C80.526 0.701472 80.7275 0.5 80.976 0.5H81.9766C82.2251 0.5 82.4266 0.701472 82.4266 0.95C82.4266 1.19853 82.2251 1.4 81.9766 1.4H80.976C80.7275 1.4 80.526 1.19853 80.526 0.95ZM83.5278 0.95C83.5278 0.701472 83.7293 0.5 83.9778 0.5H84.9784C85.2269 0.5 85.4284 0.701472 85.4284 0.95C85.4284 1.19853 85.2269 1.4 84.9784 1.4H83.9778C83.7293 1.4 83.5278 1.19853 83.5278 0.95ZM86.5295 0.95C86.5295 0.701472 86.731 0.5 86.9795 0.5H87.9801C88.2286 0.5 88.4301 0.701472 88.4301 0.95C88.4301 1.19853 88.2286 1.4 87.9801 1.4H86.9795C86.731 1.4 86.5295 1.19853 86.5295 0.95ZM89.5313 0.95C89.5313 0.701472 89.7328 0.5 89.9813 0.5H90.9819C91.2304 0.5 91.4319 0.701472 91.4319 0.95C91.4319 1.19853 91.2304 1.4 90.9819 1.4H89.9813C89.7328 1.4 89.5313 1.19853 89.5313 0.95ZM92.533 0.95C92.533 0.701472 92.7345 0.5 92.983 0.5H93.9836C94.2322 0.5 94.4336 0.701472 94.4336 0.95C94.4336 1.19853 94.2322 1.4 93.9836 1.4H92.983C92.7345 1.4 92.533 1.19853 92.533 0.95ZM95.5348 0.95C95.5348 0.701472 95.7363 0.5 95.9848 0.5H96.9854C97.2339 0.5 97.4354 0.701472 97.4354 0.95C97.4354 1.19853 97.2339 1.4 96.9854 1.4H95.9848C95.7363 1.4 95.5348 1.19853 95.5348 0.95ZM98.5366 0.95C98.5366 0.701472 98.738 0.5 98.9866 0.5H99.9871C100.236 0.5 100.437 0.701472 100.437 0.95C100.437 1.19853 100.236 1.4 99.9871 1.4H98.9866C98.738 1.4 98.5366 1.19853 98.5366 0.95ZM101.538 0.95C101.538 0.701472 101.74 0.5 101.988 0.5H102.989C103.237 0.5 103.439 0.701472 103.439 0.95C103.439 1.19853 103.237 1.4 102.989 1.4H101.988C101.74 1.4 101.538 1.19853 101.538 0.95ZM104.54 0.95C104.54 0.701472 104.742 0.5 104.99 0.5H105.991C106.239 0.5 106.441 0.701472 106.441 0.95C106.441 1.19853 106.239 1.4 105.991 1.4H104.99C104.742 1.4 104.54 1.19853 104.54 0.95ZM107.542 0.95C107.542 0.701472 107.743 0.5 107.992 0.5H108.992C109.241 0.5 109.442 0.701472 109.442 0.95C109.442 1.19853 109.241 1.4 108.992 1.4H107.992C107.743 1.4 107.542 1.19853 107.542 0.95ZM110.544 0.95C110.544 0.701472 110.745 0.5 110.994 0.5H111.994C112.243 0.5 112.444 0.701472 112.444 0.95C112.444 1.19853 112.243 1.4 111.994 1.4H110.994C110.745 1.4 110.544 1.19853 110.544 0.95ZM113.545 0.95C113.545 0.701472 113.747 0.5 113.995 0.5H114.996C115.244 0.5 115.446 0.701472 115.446 0.95C115.446 1.19853 115.244 1.4 114.996 1.4H113.995C113.747 1.4 113.545 1.19853 113.545 0.95ZM116.547 0.95C116.547 0.701472 116.749 0.5 116.997 0.5H117.998C118.246 0.5 118.448 0.701472 118.448 0.95C118.448 1.19853 118.246 1.4 117.998 1.4H116.997C116.749 1.4 116.547 1.19853 116.547 0.95ZM119.549 0.95C119.549 0.701472 119.75 0.5 119.999 0.5H120.999C121.248 0.5 121.449 0.701472 121.449 0.95C121.449 1.19853 121.248 1.4 120.999 1.4H119.999C119.75 1.4 119.549 1.19853 119.549 0.95ZM122.551 0.95C122.551 0.701472 122.752 0.5 123.001 0.5H124.001C124.25 0.5 124.451 0.701472 124.451 0.95C124.451 1.19853 124.25 1.4 124.001 1.4H123.001C122.752 1.4 122.551 1.19853 122.551 0.95ZM125.552 0.95C125.552 0.701472 125.754 0.5 126.002 0.5H127.003C127.251 0.5 127.453 0.701472 127.453 0.95C127.453 1.19853 127.251 1.4 127.003 1.4H126.002C125.754 1.4 125.552 1.19853 125.552 0.95ZM128.554 0.95C128.554 0.701472 128.756 0.5 129.004 0.5H130.005C130.253 0.5 130.455 0.701472 130.455 0.95C130.455 1.19853 130.253 1.4 130.005 1.4H129.004C128.756 1.4 128.554 1.19853 128.554 0.95ZM131.556 0.95C131.556 0.701472 131.757 0.5 132.006 0.5H133.006C133.255 0.5 133.456 0.701472 133.456 0.95C133.456 1.19853 133.255 1.4 133.006 1.4H132.006C131.757 1.4 131.556 1.19853 131.556 0.95ZM134.558 0.95C134.558 0.701472 134.759 0.5 135.008 0.5H136.008C136.257 0.5 136.458 0.701472 136.458 0.95C136.458 1.19853 136.257 1.4 136.008 1.4H135.008C134.759 1.4 134.558 1.19853 134.558 0.95ZM137.559 0.95C137.559 0.701472 137.761 0.5 138.009 0.5H139.01C139.258 0.5 139.46 0.701472 139.46 0.95C139.46 1.19853 139.258 1.4 139.01 1.4H138.009C137.761 1.4 137.559 1.19853 137.559 0.95ZM140.561 0.95C140.561 0.701472 140.763 0.5 141.011 0.5H142.012C142.26 0.5 142.462 0.701472 142.462 0.95C142.462 1.19853 142.26 1.4 142.012 1.4H141.011C140.763 1.4 140.561 1.19853 140.561 0.95ZM143.563 0.95C143.563 0.701472 143.764 0.5 144.013 0.5H145.013C145.262 0.5 145.463 0.701472 145.463 0.95C145.463 1.19853 145.262 1.4 145.013 1.4H144.013C143.764 1.4 143.563 1.19853 143.563 0.95ZM146.565 0.95C146.565 0.701472 146.766 0.5 147.015 0.5H148.015C148.264 0.5 148.465 0.701472 148.465 0.95C148.465 1.19853 148.264 1.4 148.015 1.4H147.015C146.766 1.4 146.565 1.19853 146.565 0.95ZM149.566 0.95C149.566 0.701472 149.768 0.5 150.016 0.5H151.017C151.266 0.5 151.467 0.701472 151.467 0.95C151.467 1.19853 151.266 1.4 151.017 1.4H150.016C149.768 1.4 149.566 1.19853 149.566 0.95ZM152.568 0.95C152.568 0.701472 152.77 0.5 153.018 0.5H154.019C154.267 0.5 154.469 0.701472 154.469 0.95C154.469 1.19853 154.267 1.4 154.019 1.4H153.018C152.77 1.4 152.568 1.19853 152.568 0.95ZM155.57 0.95C155.57 0.701472 155.771 0.5 156.02 0.5H157.02C157.269 0.5 157.47 0.701472 157.47 0.95C157.47 1.19853 157.269 1.4 157.02 1.4H156.02C155.771 1.4 155.57 1.19853 155.57 0.95ZM158.572 0.95C158.572 0.701472 158.773 0.5 159.022 0.5H160.022C160.271 0.5 160.472 0.701472 160.472 0.95C160.472 1.19853 160.271 1.4 160.022 1.4H159.022C158.773 1.4 158.572 1.19853 158.572 0.95ZM161.573 0.95C161.573 0.701472 161.775 0.5 162.023 0.5H163.024C163.273 0.5 163.474 0.701472 163.474 0.95C163.474 1.19853 163.273 1.4 163.024 1.4H162.023C161.775 1.4 161.573 1.19853 161.573 0.95ZM164.575 0.95C164.575 0.701472 164.777 0.5 165.025 0.5H166.026C166.274 0.5 166.476 0.701472 166.476 0.95C166.476 1.19853 166.274 1.4 166.026 1.4H165.025C164.777 1.4 164.575 1.19853 164.575 0.95ZM167.577 0.95C167.577 0.701472 167.778 0.5 168.027 0.5H169.027C169.276 0.5 169.478 0.701472 169.478 0.95C169.478 1.19853 169.276 1.4 169.027 1.4H168.027C167.778 1.4 167.577 1.19853 167.577 0.95ZM170.579 0.95C170.579 0.701472 170.78 0.5 171.029 0.5H172.029C172.278 0.5 172.479 0.701472 172.479 0.95C172.479 1.19853 172.278 1.4 172.029 1.4H171.029C170.78 1.4 170.579 1.19853 170.579 0.95ZM173.58 0.95C173.58 0.701472 173.782 0.5 174.03 0.5H175.031C175.28 0.5 175.481 0.701472 175.481 0.95C175.481 1.19853 175.28 1.4 175.031 1.4H174.03C173.782 1.4 173.58 1.19853 173.58 0.95ZM176.582 0.95C176.582 0.701472 176.784 0.5 177.032 0.5H178.033C178.281 0.5 178.483 0.701472 178.483 0.95C178.483 1.19853 178.281 1.4 178.033 1.4H177.032C176.784 1.4 176.582 1.19853 176.582 0.95ZM179.584 0.95C179.584 0.701472 179.785 0.5 180.034 0.5H181.035C181.283 0.5 181.485 0.701472 181.485 0.95C181.485 1.19853 181.283 1.4 181.035 1.4H180.034C179.785 1.4 179.584 1.19853 179.584 0.95ZM182.586 0.95C182.586 0.701472 182.787 0.5 183.036 0.5H184.036C184.285 0.5 184.486 0.701472 184.486 0.95C184.486 1.19853 184.285 1.4 184.036 1.4H183.036C182.787 1.4 182.586 1.19853 182.586 0.95ZM185.587 0.95C185.587 0.701472 185.789 0.5 186.037 0.5H187.038C187.287 0.5 187.488 0.701472 187.488 0.95C187.488 1.19853 187.287 1.4 187.038 1.4H186.037C185.789 1.4 185.587 1.19853 185.587 0.95ZM188.589 0.95C188.589 0.701472 188.791 0.5 189.039 0.5H190.04C190.288 0.5 190.49 0.701472 190.49 0.95C190.49 1.19853 190.288 1.4 190.04 1.4H189.039C188.791 1.4 188.589 1.19853 188.589 0.95ZM191.591 0.95C191.591 0.701472 191.792 0.5 192.041 0.5H193.042C193.29 0.5 193.492 0.701472 193.492 0.95C193.492 1.19853 193.29 1.4 193.042 1.4H192.041C191.792 1.4 191.591 1.19853 191.591 0.95ZM194.593 0.95C194.593 0.701472 194.794 0.5 195.043 0.5H196.043C196.292 0.5 196.493 0.701472 196.493 0.95C196.493 1.19853 196.292 1.4 196.043 1.4H195.043C194.794 1.4 194.593 1.19853 194.593 0.95ZM197.594 0.95C197.594 0.701472 197.796 0.5 198.044 0.5H199.045C199.294 0.5 199.495 0.701472 199.495 0.95C199.495 1.19853 199.294 1.4 199.045 1.4H198.044C197.796 1.4 197.594 1.19853 197.594 0.95ZM200.596 0.95C200.596 0.701472 200.798 0.5 201.046 0.5H202.047C202.295 0.5 202.497 0.701472 202.497 0.95C202.497 1.19853 202.295 1.4 202.047 1.4H201.046C200.798 1.4 200.596 1.19853 200.596 0.95ZM203.598 0.95C203.598 0.701472 203.799 0.5 204.048 0.5H205.049C205.297 0.5 205.499 0.701472 205.499 0.95C205.499 1.19853 205.297 1.4 205.049 1.4H204.048C203.799 1.4 203.598 1.19853 203.598 0.95ZM206.6 0.95C206.6 0.701472 206.801 0.5 207.05 0.5H207.55C207.799 0.5 208 0.701472 208 0.95C208 1.19853 207.799 1.4 207.55 1.4H207.05C206.801 1.4 206.6 1.19853 206.6 0.95Z" fill="#313232"/>
</g>
</svg>
