<svg width="24" height="24" viewBox="0 0 24 24" fill="none" xmlns="http://www.w3.org/2000/svg">
<g id="Challenge-1">
<g id="flag">
<path id="Vector" d="M18.6604 12.3641L17.3144 11.0181C16.9945 10.7423 16.8069 10.3341 16.7959 9.88179C16.7738 9.38534 16.9724 8.88888 17.3365 8.52482L18.6604 7.20094C19.8077 6.05358 20.238 4.95035 19.8739 4.07879C19.5209 3.21827 18.4287 2.74388 16.818 2.74388H5.28919V1.79511C5.28919 1.34278 4.91409 0.967682 4.46177 0.967682C4.00944 0.967682 3.63434 1.34278 3.63434 1.79511V22.2049C3.63434 22.6572 4.00944 23.0323 4.46177 23.0323C4.91409 23.0323 5.28919 22.6572 5.28919 22.2049V16.8211H16.818C18.4066 16.8211 19.4767 16.3357 19.8408 15.4641C20.2049 14.5926 19.7856 13.5004 18.6604 12.3641Z" fill="white"/>
</g>
</g>
</svg>
