<svg width="24" height="24" viewBox="0 0 24 24" fill="none" xmlns="http://www.w3.org/2000/svg">
<g id="Done-2">
<path id="Subtract" fill-rule="evenodd" clip-rule="evenodd" d="M2.91789 2.91789C4.32218 1.5136 6.40137 1 9 1H15C17.5986 1 19.6778 1.5136 21.0821 2.91789C22.4864 4.32218 23 6.40137 23 9V15C23 17.5986 22.4864 19.6778 21.0821 21.0821C19.6778 22.4864 17.5986 23 15 23H9C6.40137 23 4.32218 22.4864 2.91789 21.0821C1.5136 19.6778 1 17.5986 1 15V9C1 6.40137 1.5136 4.32218 2.91789 2.91789ZM16.9565 9.87773C17.3474 9.48755 17.3479 8.85438 16.9577 8.46352C16.5676 8.07265 15.9344 8.07209 15.5435 8.46227L10.5806 13.4164L8.45711 11.2929C8.06658 10.9024 7.43342 10.9024 7.04289 11.2929C6.65237 11.6834 6.65237 12.3166 7.04289 12.7071L9.87289 15.5371C10.2632 15.9274 10.8959 15.9277 11.2865 15.5377L16.9565 9.87773Z" fill="#78F5B6"/>
</g>
</svg>
