<svg width="24" height="24" viewBox="0 0 24 24" fill="none" xmlns="http://www.w3.org/2000/svg">
<path fill-rule="evenodd" clip-rule="evenodd" d="M11.9993 6.0013C8.68754 6.0013 5.99935 8.68949 5.99935 12.0013C5.99935 15.3131 8.68754 18.0013 11.9993 18.0013C15.3112 18.0013 17.9993 15.3131 17.9993 12.0013C17.9993 8.68949 15.3112 6.0013 11.9993 6.0013ZM4.66602 12.0013C4.66602 7.95311 7.95116 4.66797 11.9993 4.66797C16.0475 4.66797 19.3327 7.95311 19.3327 12.0013C19.3327 16.0495 16.0475 19.3346 11.9993 19.3346C7.95116 19.3346 4.66602 16.0495 4.66602 12.0013Z" fill="#F73E3E"/>
<path fill-rule="evenodd" clip-rule="evenodd" d="M12.0007 18.6654C15.6807 18.6654 18.6673 15.6787 18.6673 11.9987C18.6673 8.3187 15.6807 5.33203 12.0007 5.33203C8.32065 5.33203 5.33398 8.3187 5.33398 11.9987C5.33398 15.6787 8.32065 18.6654 12.0007 18.6654ZM12.4206 9.00651C12.4206 8.63832 12.1221 8.33984 11.7539 8.33984C11.3857 8.33984 11.0872 8.63832 11.0872 9.00651V11.7398C11.0872 12.0934 11.2062 12.44 11.3665 12.7209C11.5265 13.0015 11.7636 13.2797 12.0663 13.4594L12.0674 13.46L14.1323 14.6923C14.4484 14.881 14.8577 14.7777 15.0464 14.4615C15.2351 14.1453 15.1317 13.7361 14.8155 13.5474L12.7489 12.314L12.7471 12.313C12.6904 12.2793 12.6012 12.1945 12.5247 12.0604C12.4482 11.9264 12.4206 11.8063 12.4206 11.7398V9.00651Z" fill="#F73E3E"/>
</svg>
