<svg width="40" height="41" viewBox="0 0 40 41" fill="none" xmlns="http://www.w3.org/2000/svg">
<path d="M15.0002 37.1693H25.0002C33.3335 37.1693 36.6668 33.8359 36.6668 25.5026V15.5026C36.6668 7.16927 33.3335 3.83594 25.0002 3.83594H15.0002C6.66683 3.83594 3.3335 7.16927 3.3335 15.5026V25.5026C3.3335 33.8359 6.66683 37.1693 15.0002 37.1693Z" fill="#2086F4" stroke="#2086F4" stroke-width="3.6" stroke-linecap="round" stroke-linejoin="round"/>
<g clip-path="url(#clip0_3428_10364)">
<path d="M24.948 11.707V10.082C24.948 9.65495 24.5938 9.30078 24.1667 9.30078C23.7397 9.30078 23.3855 9.65495 23.3855 10.082V11.6445H16.6147V10.082C16.6147 9.65495 16.2605 9.30078 15.8334 9.30078C15.4063 9.30078 15.0522 9.65495 15.0522 10.082V11.707C12.2397 11.9674 10.8751 13.6445 10.6667 16.1341C10.6459 16.4362 10.8959 16.6862 11.1876 16.6862H28.8126C29.1147 16.6862 29.3647 16.4258 29.3334 16.1341C29.1251 13.6445 27.7605 11.9674 24.948 11.707Z" fill="#161718"/>
<path d="M28.3333 18.25H11.6667C11.0938 18.25 10.625 18.7188 10.625 19.2917V25.7083C10.625 28.8333 12.1875 30.9167 15.8333 30.9167H24.1667C27.8125 30.9167 29.375 28.8333 29.375 25.7083V19.2917C29.375 18.7188 28.9063 18.25 28.3333 18.25ZM17.0938 26.9688C17.0417 27.0104 16.9896 27.0625 16.9375 27.0938C16.875 27.1354 16.8125 27.1667 16.75 27.1875C16.6875 27.2188 16.625 27.2396 16.5625 27.25C16.4896 27.2604 16.4271 27.2708 16.3542 27.2708C16.2188 27.2708 16.0833 27.2396 15.9583 27.1875C15.8229 27.1354 15.7188 27.0625 15.6146 26.9688C15.4271 26.7708 15.3125 26.5 15.3125 26.2292C15.3125 25.9583 15.4271 25.6875 15.6146 25.4896C15.7188 25.3958 15.8229 25.3229 15.9583 25.2708C16.1458 25.1875 16.3542 25.1667 16.5625 25.2083C16.625 25.2188 16.6875 25.2396 16.75 25.2708C16.8125 25.2917 16.875 25.3229 16.9375 25.3646C16.9896 25.4063 17.0417 25.4479 17.0938 25.4896C17.2813 25.6875 17.3958 25.9583 17.3958 26.2292C17.3958 26.5 17.2813 26.7708 17.0938 26.9688ZM17.0938 23.3229C16.8958 23.5104 16.625 23.625 16.3542 23.625C16.0833 23.625 15.8125 23.5104 15.6146 23.3229C15.4271 23.125 15.3125 22.8542 15.3125 22.5833C15.3125 22.3125 15.4271 22.0417 15.6146 21.8438C15.9063 21.5521 16.3646 21.4583 16.75 21.625C16.8854 21.6771 17 21.75 17.0938 21.8438C17.2813 22.0417 17.3958 22.3125 17.3958 22.5833C17.3958 22.8542 17.2813 23.125 17.0938 23.3229ZM20.7396 26.9688C20.5417 27.1562 20.2708 27.2708 20 27.2708C19.7292 27.2708 19.4583 27.1562 19.2604 26.9688C19.0729 26.7708 18.9583 26.5 18.9583 26.2292C18.9583 25.9583 19.0729 25.6875 19.2604 25.4896C19.6458 25.1042 20.3542 25.1042 20.7396 25.4896C20.9271 25.6875 21.0417 25.9583 21.0417 26.2292C21.0417 26.5 20.9271 26.7708 20.7396 26.9688ZM20.7396 23.3229C20.6875 23.3646 20.6354 23.4062 20.5833 23.4479C20.5208 23.4896 20.4583 23.5208 20.3958 23.5417C20.3333 23.5729 20.2708 23.5938 20.2083 23.6042C20.1354 23.6146 20.0729 23.625 20 23.625C19.7292 23.625 19.4583 23.5104 19.2604 23.3229C19.0729 23.125 18.9583 22.8542 18.9583 22.5833C18.9583 22.3125 19.0729 22.0417 19.2604 21.8438C19.3542 21.75 19.4688 21.6771 19.6042 21.625C19.9896 21.4583 20.4479 21.5521 20.7396 21.8438C20.9271 22.0417 21.0417 22.3125 21.0417 22.5833C21.0417 22.8542 20.9271 23.125 20.7396 23.3229ZM24.3854 26.9688C24.1875 27.1562 23.9167 27.2708 23.6458 27.2708C23.375 27.2708 23.1042 27.1562 22.9063 26.9688C22.7188 26.7708 22.6042 26.5 22.6042 26.2292C22.6042 25.9583 22.7188 25.6875 22.9063 25.4896C23.2917 25.1042 24 25.1042 24.3854 25.4896C24.5729 25.6875 24.6875 25.9583 24.6875 26.2292C24.6875 26.5 24.5729 26.7708 24.3854 26.9688ZM24.3854 23.3229C24.3333 23.3646 24.2813 23.4062 24.2292 23.4479C24.1667 23.4896 24.1042 23.5208 24.0417 23.5417C23.9792 23.5729 23.9167 23.5938 23.8542 23.6042C23.7813 23.6146 23.7083 23.625 23.6458 23.625C23.375 23.625 23.1042 23.5104 22.9063 23.3229C22.7188 23.125 22.6042 22.8542 22.6042 22.5833C22.6042 22.3125 22.7188 22.0417 22.9063 21.8438C23.0104 21.75 23.1146 21.6771 23.25 21.625C23.4375 21.5417 23.6458 21.5208 23.8542 21.5625C23.9167 21.5729 23.9792 21.5938 24.0417 21.625C24.1042 21.6458 24.1667 21.6771 24.2292 21.7188C24.2813 21.7604 24.3333 21.8021 24.3854 21.8438C24.5729 22.0417 24.6875 22.3125 24.6875 22.5833C24.6875 22.8542 24.5729 23.125 24.3854 23.3229Z" fill="#161718"/>
</g>
<defs>
<clipPath id="clip0_3428_10364">
<rect width="25" height="25" fill="white" transform="translate(7.5 8)"/>
</clipPath>
</defs>
</svg>
