<svg width="100" height="100" viewBox="0 0 100 100" fill="none" xmlns="http://www.w3.org/2000/svg">
<path d="M58.3953 77.6733C59.7677 77.075 60.3386 76.199 60.7513 75.6836C64.4554 71.0569 56.552 57.3242 45.2687 49.3779C33.3099 38.9648 20.1426 35.4165 16.4385 40.0432C15.8027 40.8373 15.3045 41.9189 15.0969 43.1396L8.06568 83.5937C7.82154 88.5254 9.70644 90.3994 10.6497 91.3149C12.359 92.9739 15.6829 94.3847 19.1497 93.164C32.5286 88.0127 45.0623 83.486 58.3953 77.6733Z" fill="url(#paint0_linear_1128_13533)"/>
<path d="M58.3953 77.6733C59.7677 77.075 60.3386 76.199 60.7513 75.6836C64.4554 71.0569 56.552 57.3242 45.2687 49.3779C33.3099 38.9648 20.1426 35.4165 16.4385 40.0432C15.8027 40.8373 15.3045 41.9189 15.0969 43.1396L8.06568 83.5937C7.82154 88.5254 9.70644 90.3994 10.6497 91.3149C12.359 92.9739 15.6829 94.3847 19.1497 93.164C32.5286 88.0127 45.0623 83.486 58.3953 77.6733Z" fill="url(#paint1_linear_1128_13533)"/>
<path d="M58.3953 77.6733C59.7677 77.075 60.3386 76.199 60.7513 75.6836C64.4554 71.0569 56.552 57.3242 45.2687 49.3779C33.3099 38.9648 20.1426 35.4165 16.4385 40.0432C15.8027 40.8373 15.3045 41.9189 15.0969 43.1396L8.06568 83.5937C7.82154 88.5254 9.70644 90.3994 10.6497 91.3149C12.359 92.9739 15.6829 94.3847 19.1497 93.164C32.5286 88.0127 45.0623 83.486 58.3953 77.6733Z" fill="url(#paint2_linear_1128_13533)"/>
<path d="M58.3953 77.6733C59.7677 77.075 60.3386 76.199 60.7513 75.6836C64.4554 71.0569 56.552 57.3242 45.2687 49.3779C33.3099 38.9648 20.1426 35.4165 16.4385 40.0432C15.8027 40.8373 15.3045 41.9189 15.0969 43.1396L8.06568 83.5937C7.82154 88.5254 9.70644 90.3994 10.6497 91.3149C12.359 92.9739 15.6829 94.3847 19.1497 93.164C32.5286 88.0127 45.0623 83.486 58.3953 77.6733Z" fill="url(#paint3_linear_1128_13533)"/>
<path d="M58.3953 77.6733C59.7677 77.075 60.3386 76.199 60.7513 75.6836C64.4554 71.0569 56.552 57.3242 45.2687 49.3779C33.3099 38.9648 20.1426 35.4165 16.4385 40.0432C15.8027 40.8373 15.3045 41.9189 15.0969 43.1396L8.06568 83.5937C7.82154 88.5254 9.70644 90.3994 10.6497 91.3149C12.359 92.9739 15.6829 94.3847 19.1497 93.164C32.5286 88.0127 45.0623 83.486 58.3953 77.6733Z" fill="url(#paint4_radial_1128_13533)"/>
<ellipse cx="39.2331" cy="56.8339" rx="25.407" ry="9.11049" transform="rotate(39.7456 39.2331 56.8339)" fill="url(#paint5_linear_1128_13533)"/>
<ellipse cx="39.2331" cy="56.8339" rx="25.407" ry="9.11049" transform="rotate(39.7456 39.2331 56.8339)" fill="url(#paint6_radial_1128_13533)"/>
<ellipse cx="39.2331" cy="56.8339" rx="25.407" ry="9.11049" transform="rotate(39.7456 39.2331 56.8339)" fill="url(#paint7_radial_1128_13533)"/>
<circle cx="46.7377" cy="50" r="3.75977" fill="url(#paint8_radial_1128_13533)"/>
<circle cx="46.7377" cy="50" r="3.75977" fill="url(#paint9_radial_1128_13533)"/>
<circle cx="77.597" cy="71.582" r="3.75977" fill="url(#paint10_radial_1128_13533)"/>
<circle cx="77.597" cy="71.582" r="3.75977" fill="url(#paint11_radial_1128_13533)"/>
<circle cx="77.597" cy="71.582" r="3.75977" fill="url(#paint12_radial_1128_13533)"/>
<circle cx="74.4476" cy="21.9238" r="3.75977" fill="url(#paint13_radial_1128_13533)"/>
<circle cx="74.4476" cy="21.9238" r="3.75977" fill="url(#paint14_radial_1128_13533)"/>
<circle cx="31.2214" cy="10.5225" r="3.75977" fill="url(#paint15_radial_1128_13533)"/>
<circle cx="31.2214" cy="10.5225" r="3.75977" fill="url(#paint16_radial_1128_13533)"/>
<circle cx="31.2214" cy="10.5225" r="3.75977" fill="url(#paint17_radial_1128_13533)"/>
<circle cx="15.4011" cy="25.3418" r="3.75977" fill="url(#paint18_radial_1128_13533)"/>
<circle cx="15.4011" cy="25.3418" r="3.75977" fill="url(#paint19_radial_1128_13533)"/>
<path fill-rule="evenodd" clip-rule="evenodd" d="M59.7001 6.50733C61.3379 6.5839 62.6035 7.97368 62.527 9.61149C62.4215 11.8664 62.0111 15.6229 61.0315 19.6354C60.2127 22.9893 58.9521 26.7093 57.0111 29.8986C57.4805 32.3867 57.4931 35.3226 56.9778 38.661C56.7278 40.2814 55.2114 41.3923 53.591 41.1422C51.9706 40.8921 50.8597 39.3758 51.1098 37.7553C51.2251 37.0084 51.3068 36.3089 51.3594 35.6543C50.7832 35.9547 50.193 36.1903 49.5906 36.3586C47.237 37.0162 44.9799 36.5605 43.2143 35.3843C39.8598 33.1497 38.3131 28.2598 40.9096 24.2621C43.3796 20.459 48.5276 19.425 52.4421 22.1308C52.8934 22.4428 53.3173 22.7943 53.7123 23.1844C54.3369 21.6049 54.8503 19.9196 55.2634 18.2273C56.1421 14.628 56.5062 11.254 56.5959 9.33419C56.6725 7.69638 58.0623 6.43075 59.7001 6.50733ZM50.4903 28.8213C50.0396 27.8829 49.5043 27.318 49.066 27.0151C47.8414 26.1686 46.4952 26.5628 45.889 27.4961C45.239 28.4969 45.5828 29.8278 46.506 30.4428C46.8793 30.6914 47.3577 30.8176 47.9928 30.6402C48.5674 30.4796 49.447 30.0133 50.4903 28.8213Z" fill="url(#paint20_linear_1128_13533)"/>
<path fill-rule="evenodd" clip-rule="evenodd" d="M59.7001 6.50733C61.3379 6.5839 62.6035 7.97368 62.527 9.61149C62.4215 11.8664 62.0111 15.6229 61.0315 19.6354C60.2127 22.9893 58.9521 26.7093 57.0111 29.8986C57.4805 32.3867 57.4931 35.3226 56.9778 38.661C56.7278 40.2814 55.2114 41.3923 53.591 41.1422C51.9706 40.8921 50.8597 39.3758 51.1098 37.7553C51.2251 37.0084 51.3068 36.3089 51.3594 35.6543C50.7832 35.9547 50.193 36.1903 49.5906 36.3586C47.237 37.0162 44.9799 36.5605 43.2143 35.3843C39.8598 33.1497 38.3131 28.2598 40.9096 24.2621C43.3796 20.459 48.5276 19.425 52.4421 22.1308C52.8934 22.4428 53.3173 22.7943 53.7123 23.1844C54.3369 21.6049 54.8503 19.9196 55.2634 18.2273C56.1421 14.628 56.5062 11.254 56.5959 9.33419C56.6725 7.69638 58.0623 6.43075 59.7001 6.50733ZM50.4903 28.8213C50.0396 27.8829 49.5043 27.318 49.066 27.0151C47.8414 26.1686 46.4952 26.5628 45.889 27.4961C45.239 28.4969 45.5828 29.8278 46.506 30.4428C46.8793 30.6914 47.3577 30.8176 47.9928 30.6402C48.5674 30.4796 49.447 30.0133 50.4903 28.8213Z" fill="url(#paint21_radial_1128_13533)"/>
<path fill-rule="evenodd" clip-rule="evenodd" d="M59.7001 6.50733C61.3379 6.5839 62.6035 7.97368 62.527 9.61149C62.4215 11.8664 62.0111 15.6229 61.0315 19.6354C60.2127 22.9893 58.9521 26.7093 57.0111 29.8986C57.4805 32.3867 57.4931 35.3226 56.9778 38.661C56.7278 40.2814 55.2114 41.3923 53.591 41.1422C51.9706 40.8921 50.8597 39.3758 51.1098 37.7553C51.2251 37.0084 51.3068 36.3089 51.3594 35.6543C50.7832 35.9547 50.193 36.1903 49.5906 36.3586C47.237 37.0162 44.9799 36.5605 43.2143 35.3843C39.8598 33.1497 38.3131 28.2598 40.9096 24.2621C43.3796 20.459 48.5276 19.425 52.4421 22.1308C52.8934 22.4428 53.3173 22.7943 53.7123 23.1844C54.3369 21.6049 54.8503 19.9196 55.2634 18.2273C56.1421 14.628 56.5062 11.254 56.5959 9.33419C56.6725 7.69638 58.0623 6.43075 59.7001 6.50733ZM50.4903 28.8213C50.0396 27.8829 49.5043 27.318 49.066 27.0151C47.8414 26.1686 46.4952 26.5628 45.889 27.4961C45.239 28.4969 45.5828 29.8278 46.506 30.4428C46.8793 30.6914 47.3577 30.8176 47.9928 30.6402C48.5674 30.4796 49.447 30.0133 50.4903 28.8213Z" fill="url(#paint22_radial_1128_13533)"/>
<path fill-rule="evenodd" clip-rule="evenodd" d="M59.7001 6.50733C61.3379 6.5839 62.6035 7.97368 62.527 9.61149C62.4215 11.8664 62.0111 15.6229 61.0315 19.6354C60.2127 22.9893 58.9521 26.7093 57.0111 29.8986C57.4805 32.3867 57.4931 35.3226 56.9778 38.661C56.7278 40.2814 55.2114 41.3923 53.591 41.1422C51.9706 40.8921 50.8597 39.3758 51.1098 37.7553C51.2251 37.0084 51.3068 36.3089 51.3594 35.6543C50.7832 35.9547 50.193 36.1903 49.5906 36.3586C47.237 37.0162 44.9799 36.5605 43.2143 35.3843C39.8598 33.1497 38.3131 28.2598 40.9096 24.2621C43.3796 20.459 48.5276 19.425 52.4421 22.1308C52.8934 22.4428 53.3173 22.7943 53.7123 23.1844C54.3369 21.6049 54.8503 19.9196 55.2634 18.2273C56.1421 14.628 56.5062 11.254 56.5959 9.33419C56.6725 7.69638 58.0623 6.43075 59.7001 6.50733ZM50.4903 28.8213C50.0396 27.8829 49.5043 27.318 49.066 27.0151C47.8414 26.1686 46.4952 26.5628 45.889 27.4961C45.239 28.4969 45.5828 29.8278 46.506 30.4428C46.8793 30.6914 47.3577 30.8176 47.9928 30.6402C48.5674 30.4796 49.447 30.0133 50.4903 28.8213Z" fill="url(#paint23_radial_1128_13533)"/>
<path d="M49.8517 81.2787C41.7081 80.7128 35.9962 78.2755 26.7423 70.6298C18.7816 64.0527 14.8293 58.2178 13.5102 52.2678L11.9819 61.0606C12.6065 64.5019 15.2921 69.3115 20.6143 74.121C27.5753 80.4114 34.5059 84.8632 41.3599 84.6681C44.1807 83.5666 47.0057 82.4434 49.8517 81.2787Z" fill="url(#paint24_radial_1128_13533)"/>
<path d="M32.6779 88.0093C28.7639 88.2275 23.4708 85.0344 17.9776 80.469C13.2901 76.4162 10.9779 72.0132 10.4913 69.6373L8.93933 78.5665C9.32321 80.076 10.4923 82.1276 13.876 85.5959C17.6598 89.4743 21.4648 90.9835 23.7244 91.4127C25.3277 90.8016 26.9214 90.1965 28.5083 89.594C29.9027 89.0646 31.2919 88.5372 32.6779 88.0093Z" fill="url(#paint25_radial_1128_13533)"/>
<path fill-rule="evenodd" clip-rule="evenodd" d="M87.1973 40.9646C75.954 38.7682 69.3104 43.919 67.2045 46.2291C65.9836 47.5684 63.9083 47.6644 62.569 46.4435C61.2298 45.2227 61.1338 43.1473 62.3547 41.8081C65.6199 38.2263 74.4547 31.7887 88.4556 34.5239C90.2341 34.8713 91.3943 36.5948 91.0468 38.3734C90.6994 40.1519 88.9759 41.3121 87.1973 40.9646Z" fill="url(#paint26_radial_1128_13533)"/>
<path fill-rule="evenodd" clip-rule="evenodd" d="M87.1973 40.9646C75.954 38.7682 69.3104 43.919 67.2045 46.2291C65.9836 47.5684 63.9083 47.6644 62.569 46.4435C61.2298 45.2227 61.1338 43.1473 62.3547 41.8081C65.6199 38.2263 74.4547 31.7887 88.4556 34.5239C90.2341 34.8713 91.3943 36.5948 91.0468 38.3734C90.6994 40.1519 88.9759 41.3121 87.1973 40.9646Z" fill="url(#paint27_radial_1128_13533)"/>
<path d="M40.1722 25.6611C40.3641 25.1866 40.6065 24.7185 40.903 24.2621C43.373 20.459 48.521 19.4251 52.4355 22.1308C52.8869 22.4428 53.3108 22.7943 53.7057 23.1844C53.8333 22.8617 53.9563 22.5345 54.0747 22.2038C54.0806 22.2238 54.0863 22.2437 54.092 22.2635C53.2879 24.7965 51.4835 27.508 50.4812 28.8161C50.031 27.8808 49.4969 27.3175 49.0594 27.0151C47.8348 26.1686 46.4886 26.5628 45.8824 27.4961C45.8589 27.5325 45.8366 27.5692 45.8156 27.6063L40.1722 25.6611Z" fill="url(#paint28_radial_1128_13533)"/>
<path d="M40.1722 25.6611C40.3641 25.1866 40.6065 24.7185 40.903 24.2621C43.373 20.459 48.521 19.4251 52.4355 22.1308C52.8869 22.4428 53.3108 22.7943 53.7057 23.1844C53.8333 22.8617 53.9563 22.5345 54.0747 22.2038C54.0806 22.2238 54.0863 22.2437 54.092 22.2635C53.2879 24.7965 51.4835 27.508 50.4812 28.8161C50.031 27.8808 49.4969 27.3175 49.0594 27.0151C47.8348 26.1686 46.4886 26.5628 45.8824 27.4961C45.8589 27.5325 45.8366 27.5692 45.8156 27.6063L40.1722 25.6611Z" fill="url(#paint29_radial_1128_13533)"/>
<path fill-rule="evenodd" clip-rule="evenodd" d="M43.2549 70.6444C41.1167 69.4622 38.888 68.0304 36.6462 66.3774C40.041 62.1694 46.1055 56.6502 54.0125 52.6645C67.0045 46.1156 81.3294 49.6701 87.1664 51.984C89.1719 52.7791 90.1532 55.0494 89.3581 57.0549C88.5631 59.0604 86.2928 60.0417 84.2873 59.2467C79.2844 57.2634 67.5855 54.5717 57.529 59.6408C50.8961 62.9843 45.9643 67.4794 43.2549 70.6444Z" fill="url(#paint30_linear_1128_13533)"/>
<path fill-rule="evenodd" clip-rule="evenodd" d="M43.2549 70.6444C41.1167 69.4622 38.888 68.0304 36.6462 66.3774C40.041 62.1694 46.1055 56.6502 54.0125 52.6645C67.0045 46.1156 81.3294 49.6701 87.1664 51.984C89.1719 52.7791 90.1532 55.0494 89.3581 57.0549C88.5631 59.0604 86.2928 60.0417 84.2873 59.2467C79.2844 57.2634 67.5855 54.5717 57.529 59.6408C50.8961 62.9843 45.9643 67.4794 43.2549 70.6444Z" fill="url(#paint31_radial_1128_13533)"/>
<path fill-rule="evenodd" clip-rule="evenodd" d="M43.2549 70.6444C41.1167 69.4622 38.888 68.0304 36.6462 66.3774C40.041 62.1694 46.1055 56.6502 54.0125 52.6645C67.0045 46.1156 81.3294 49.6701 87.1664 51.984C89.1719 52.7791 90.1532 55.0494 89.3581 57.0549C88.5631 59.0604 86.2928 60.0417 84.2873 59.2467C79.2844 57.2634 67.5855 54.5717 57.529 59.6408C50.8961 62.9843 45.9643 67.4794 43.2549 70.6444Z" fill="url(#paint32_radial_1128_13533)"/>
<path fill-rule="evenodd" clip-rule="evenodd" d="M43.2549 70.6444C41.1167 69.4622 38.888 68.0304 36.6462 66.3774C40.041 62.1694 46.1055 56.6502 54.0125 52.6645C67.0045 46.1156 81.3294 49.6701 87.1664 51.984C89.1719 52.7791 90.1532 55.0494 89.3581 57.0549C88.5631 59.0604 86.2928 60.0417 84.2873 59.2467C79.2844 57.2634 67.5855 54.5717 57.529 59.6408C50.8961 62.9843 45.9643 67.4794 43.2549 70.6444Z" fill="url(#paint33_radial_1128_13533)"/>
<path fill-rule="evenodd" clip-rule="evenodd" d="M31.8496 20.7919C30.8006 18.9067 28.422 18.2289 26.5368 19.2779C24.6517 20.3269 23.9738 22.7055 25.0228 24.5906C26.6069 27.4374 28.5573 31.4561 28.807 36.6307C29.0245 41.1404 27.9626 46.86 23.645 53.7209C25.1389 55.698 26.9428 57.7468 29.0063 59.7816C35.0936 50.9269 36.9356 42.996 36.6104 36.2543C36.2741 29.2829 33.6347 23.9998 31.8496 20.7919Z" fill="url(#paint34_radial_1128_13533)"/>
<path fill-rule="evenodd" clip-rule="evenodd" d="M31.8496 20.7919C30.8006 18.9067 28.422 18.2289 26.5368 19.2779C24.6517 20.3269 23.9738 22.7055 25.0228 24.5906C26.6069 27.4374 28.5573 31.4561 28.807 36.6307C29.0245 41.1404 27.9626 46.86 23.645 53.7209C25.1389 55.698 26.9428 57.7468 29.0063 59.7816C35.0936 50.9269 36.9356 42.996 36.6104 36.2543C36.2741 29.2829 33.6347 23.9998 31.8496 20.7919Z" fill="url(#paint35_radial_1128_13533)"/>
<path d="M57.0051 29.9011C57.474 32.3887 57.4864 35.3237 56.9713 38.6608C56.7212 40.2813 55.2049 41.3921 53.5844 41.142C51.964 40.8919 50.8532 39.3756 51.1033 37.7552C51.2183 37.0096 51.3 36.3114 51.3526 35.6578C54.4211 33.7311 56.4471 31.1676 57.0051 29.9011Z" fill="url(#paint36_radial_1128_13533)"/>
<defs>
<linearGradient id="paint0_linear_1128_13533" x1="13.1926" y1="62.4512" x2="38.388" y2="84.3262" gradientUnits="userSpaceOnUse">
<stop stop-color="#B3843C"/>
<stop offset="1" stop-color="#F17A61"/>
</linearGradient>
<linearGradient id="paint1_linear_1128_13533" x1="10.4085" y1="65.8365" x2="17.7825" y2="67.334" gradientUnits="userSpaceOnUse">
<stop stop-color="#B1853B"/>
<stop offset="1" stop-color="#B1853B" stop-opacity="0"/>
</linearGradient>
<linearGradient id="paint2_linear_1128_13533" x1="61.6744" y1="74.4629" x2="49.2278" y2="76.5137" gradientUnits="userSpaceOnUse">
<stop stop-color="#F9C26C"/>
<stop offset="1" stop-color="#F9C26C" stop-opacity="0"/>
</linearGradient>
<linearGradient id="paint3_linear_1128_13533" x1="34.8592" y1="38.7207" x2="26.8645" y2="52.2949" gradientUnits="userSpaceOnUse">
<stop stop-color="#E6BF69"/>
<stop offset="1" stop-color="#E6BF69" stop-opacity="0"/>
</linearGradient>
<radialGradient id="paint4_radial_1128_13533" cx="0" cy="0" r="1" gradientUnits="userSpaceOnUse" gradientTransform="translate(39.3847 55.9567) rotate(-49.3383) scale(13.6041 31.8813)">
<stop stop-color="#F5BD55" stop-opacity="0"/>
<stop offset="0.836376" stop-color="#FCCB57"/>
<stop offset="1" stop-color="#FCCB57" stop-opacity="0"/>
</radialGradient>
<linearGradient id="paint5_linear_1128_13533" x1="16.0859" y1="55.8269" x2="67.5856" y2="58.3441" gradientUnits="userSpaceOnUse">
<stop stop-color="#F3AB2C"/>
<stop offset="1" stop-color="#B57F1E"/>
</linearGradient>
<radialGradient id="paint6_radial_1128_13533" cx="0" cy="0" r="1" gradientUnits="userSpaceOnUse" gradientTransform="translate(26.4177 64.1276) rotate(-109.125) scale(20.2422 5.6696)">
<stop offset="0.423414" stop-color="#CA851E"/>
<stop offset="1" stop-color="#CA851E" stop-opacity="0"/>
</radialGradient>
<radialGradient id="paint7_radial_1128_13533" cx="0" cy="0" r="1" gradientUnits="userSpaceOnUse" gradientTransform="translate(47.611 64.4124) rotate(-73.0972) scale(20.3423 11.9127)">
<stop stop-color="#BC7F28"/>
<stop offset="1" stop-color="#BC7F28" stop-opacity="0"/>
</radialGradient>
<radialGradient id="paint8_radial_1128_13533" cx="0" cy="0" r="1" gradientUnits="userSpaceOnUse" gradientTransform="translate(48.3978 48.9746) rotate(138.668) scale(5.39722)">
<stop stop-color="#5AC0FF"/>
<stop offset="1" stop-color="#3279B6"/>
</radialGradient>
<radialGradient id="paint9_radial_1128_13533" cx="0" cy="0" r="1" gradientUnits="userSpaceOnUse" gradientTransform="translate(47.4773 49.482) rotate(160.051) scale(5.41996 5.94096)">
<stop offset="0.534713" stop-color="#3A619E" stop-opacity="0"/>
<stop offset="1" stop-color="#3A619E"/>
</radialGradient>
<radialGradient id="paint10_radial_1128_13533" cx="0" cy="0" r="1" gradientUnits="userSpaceOnUse" gradientTransform="translate(79.7756 69.9932) rotate(134.569) scale(6.17978)">
<stop stop-color="#FDD46C"/>
<stop offset="1" stop-color="#F09C53"/>
</radialGradient>
<radialGradient id="paint11_radial_1128_13533" cx="0" cy="0" r="1" gradientUnits="userSpaceOnUse" gradientTransform="translate(78.2971 69.6647) rotate(100.827) scale(6.12134)">
<stop offset="0.792052" stop-color="#E76260" stop-opacity="0"/>
<stop offset="0.964251" stop-color="#E76260"/>
</radialGradient>
<radialGradient id="paint12_radial_1128_13533" cx="0" cy="0" r="1" gradientUnits="userSpaceOnUse" gradientTransform="translate(79.3909 72.2024) rotate(-147.558) scale(6.1991 7.30029)">
<stop offset="0.482355" stop-color="#AA885A" stop-opacity="0"/>
<stop offset="0.90682" stop-color="#AA885A"/>
</radialGradient>
<radialGradient id="paint13_radial_1128_13533" cx="0" cy="0" r="1" gradientUnits="userSpaceOnUse" gradientTransform="translate(77.1401 20.4608) rotate(132.387) scale(6.43787)">
<stop stop-color="#FF46AA"/>
<stop offset="1" stop-color="#E3189D"/>
</radialGradient>
<radialGradient id="paint14_radial_1128_13533" cx="0" cy="0" r="1" gradientUnits="userSpaceOnUse" gradientTransform="translate(76.0345 22.6074) rotate(-173.29) scale(5.85062 7.82995)">
<stop offset="0.522105" stop-color="#B63173" stop-opacity="0"/>
<stop offset="1" stop-color="#B63173"/>
</radialGradient>
<radialGradient id="paint15_radial_1128_13533" cx="0" cy="0" r="1" gradientUnits="userSpaceOnUse" gradientTransform="translate(33.6849 9.01749) rotate(139.574) scale(5.75369)">
<stop stop-color="#FFF46F"/>
<stop offset="1" stop-color="#EFB93C"/>
</radialGradient>
<radialGradient id="paint16_radial_1128_13533" cx="0" cy="0" r="1" gradientUnits="userSpaceOnUse" gradientTransform="translate(32.8619 9.91363) rotate(-178.519) scale(5.98324 5.6968)">
<stop offset="0.558644" stop-color="#AA904B" stop-opacity="0"/>
<stop offset="0.943632" stop-color="#AA904B"/>
</radialGradient>
<radialGradient id="paint17_radial_1128_13533" cx="0" cy="0" r="1" gradientUnits="userSpaceOnUse" gradientTransform="translate(32.1866 8.39844) rotate(102.339) scale(6.39779)">
<stop offset="0.771901" stop-color="#C47072" stop-opacity="0"/>
<stop offset="1" stop-color="#C47072"/>
</radialGradient>
<radialGradient id="paint18_radial_1128_13533" cx="0" cy="0" r="1" gradientUnits="userSpaceOnUse" gradientTransform="translate(18.0936 23.8788) rotate(132.387) scale(6.43787)">
<stop stop-color="#FF46AA"/>
<stop offset="1" stop-color="#E3189D"/>
</radialGradient>
<radialGradient id="paint19_radial_1128_13533" cx="0" cy="0" r="1" gradientUnits="userSpaceOnUse" gradientTransform="translate(16.988 26.0254) rotate(-173.29) scale(5.85062 7.82995)">
<stop offset="0.522105" stop-color="#B63173" stop-opacity="0"/>
<stop offset="1" stop-color="#B63173"/>
</radialGradient>
<linearGradient id="paint20_linear_1128_13533" x1="59.5696" y1="6.50403" x2="45.5638" y2="40.0717" gradientUnits="userSpaceOnUse">
<stop stop-color="#20B2EE"/>
<stop offset="1" stop-color="#2689DA"/>
</linearGradient>
<radialGradient id="paint21_radial_1128_13533" cx="0" cy="0" r="1" gradientUnits="userSpaceOnUse" gradientTransform="translate(56.4955 17.4084) rotate(128.217) scale(24.252 14.8344)">
<stop offset="0.80204" stop-color="#4274D2" stop-opacity="0"/>
<stop offset="0.950917" stop-color="#4274D2"/>
</radialGradient>
<radialGradient id="paint22_radial_1128_13533" cx="0" cy="0" r="1" gradientUnits="userSpaceOnUse" gradientTransform="translate(55.2823 14.5998) rotate(12.0948) scale(3.49556 11.7349)">
<stop stop-color="#4D8EC0"/>
<stop offset="1" stop-color="#4D8EC0" stop-opacity="0"/>
</radialGradient>
<radialGradient id="paint23_radial_1128_13533" cx="0" cy="0" r="1" gradientUnits="userSpaceOnUse" gradientTransform="translate(62.2159 7.03141) rotate(141.953) scale(4.27825 3.84643)">
<stop stop-color="#5ADEFF"/>
<stop offset="1" stop-color="#5ADEFF" stop-opacity="0"/>
</radialGradient>
<radialGradient id="paint24_radial_1128_13533" cx="0" cy="0" r="1" gradientUnits="userSpaceOnUse" gradientTransform="translate(35.0675 78.3691) rotate(133.21) scale(13.2647 29.0422)">
<stop stop-color="#3365FF"/>
<stop offset="1" stop-color="#356DB9"/>
</radialGradient>
<radialGradient id="paint25_radial_1128_13533" cx="0" cy="0" r="1" gradientUnits="userSpaceOnUse" gradientTransform="translate(23.1534 87.549) rotate(131.598) scale(8.18803 20.7123)">
<stop stop-color="#3365FF"/>
<stop offset="1" stop-color="#356DB9"/>
</radialGradient>
<radialGradient id="paint26_radial_1128_13533" cx="0" cy="0" r="1" gradientUnits="userSpaceOnUse" gradientTransform="translate(86.0442 37.1583) rotate(168.283) scale(13.4642 5.02317)">
<stop stop-color="#FF3BA9"/>
<stop offset="1" stop-color="#F422A7"/>
</radialGradient>
<radialGradient id="paint27_radial_1128_13533" cx="0" cy="0" r="1" gradientUnits="userSpaceOnUse" gradientTransform="translate(76.3033 47.9005) rotate(-127.355) scale(13.8825 24.7415)">
<stop offset="0.752144" stop-color="#B8306F" stop-opacity="0"/>
<stop offset="1" stop-color="#B8306F"/>
</radialGradient>
<radialGradient id="paint28_radial_1128_13533" cx="0" cy="0" r="1" gradientUnits="userSpaceOnUse" gradientTransform="translate(53.2086 29.1919) rotate(-131.325) scale(9.20228 6.87879)">
<stop stop-color="#336BAF"/>
<stop offset="1" stop-color="#336BAF" stop-opacity="0"/>
</radialGradient>
<radialGradient id="paint29_radial_1128_13533" cx="0" cy="0" r="1" gradientUnits="userSpaceOnUse" gradientTransform="translate(54.092 23.2909) rotate(-127.657) scale(5.79722 2.34877)">
<stop stop-color="#49A4D4"/>
<stop offset="1" stop-color="#49A4D4" stop-opacity="0"/>
</radialGradient>
<linearGradient id="paint30_linear_1128_13533" x1="45.1573" y1="67.7967" x2="87.0608" y2="56.8151" gradientUnits="userSpaceOnUse">
<stop stop-color="#3797E2"/>
<stop offset="1" stop-color="#37AEFF"/>
</linearGradient>
<radialGradient id="paint31_radial_1128_13533" cx="0" cy="0" r="1" gradientUnits="userSpaceOnUse" gradientTransform="translate(60.6572 74.6485) rotate(-129.838) scale(24.9376 62.5112)">
<stop offset="0.622552" stop-color="#526579" stop-opacity="0"/>
<stop offset="0.962126" stop-color="#526579"/>
</radialGradient>
<radialGradient id="paint32_radial_1128_13533" cx="0" cy="0" r="1" gradientUnits="userSpaceOnUse" gradientTransform="translate(74.663 61.1898) rotate(94.3987) scale(8.56001 17.21)">
<stop offset="0.396078" stop-color="#6972FF"/>
<stop offset="1" stop-color="#6972FF" stop-opacity="0"/>
</radialGradient>
<radialGradient id="paint33_radial_1128_13533" cx="0" cy="0" r="1" gradientUnits="userSpaceOnUse" gradientTransform="translate(87.3558 53.9954) rotate(-68.8186) scale(2.34697 1.85086)">
<stop stop-color="#55BFFF"/>
<stop offset="1" stop-color="#55BFFF" stop-opacity="0"/>
</radialGradient>
<radialGradient id="paint34_radial_1128_13533" cx="0" cy="0" r="1" gradientUnits="userSpaceOnUse" gradientTransform="translate(33.8864 20.1135) rotate(99.4229) scale(22.8495 8.56033)">
<stop stop-color="#FF3AAA"/>
<stop offset="1" stop-color="#FD2F89"/>
</radialGradient>
<radialGradient id="paint35_radial_1128_13533" cx="0" cy="0" r="1" gradientUnits="userSpaceOnUse" gradientTransform="translate(21.9566 43.6755) rotate(31.1757) scale(15.0264 47.1572)">
<stop offset="0.803698" stop-color="#DB2C6E" stop-opacity="0"/>
<stop offset="1" stop-color="#DB2C6E"/>
</radialGradient>
<radialGradient id="paint36_radial_1128_13533" cx="0" cy="0" r="1" gradientUnits="userSpaceOnUse" gradientTransform="translate(55.7618 35.5392) rotate(98.0559) scale(11.0543 6.15221)">
<stop stop-color="#4AB5F8"/>
<stop offset="1" stop-color="#4AB5F8" stop-opacity="0"/>
</radialGradient>
</defs>
</svg>
