<svg width="272" height="1" viewBox="0 0 272 1" fill="none" xmlns="http://www.w3.org/2000/svg">
<path fill-rule="evenodd" clip-rule="evenodd" d="M0 0.45C0 0.201472 0.201472 0 0.45 0H0.952037C1.20057 0 1.40204 0.201472 1.40204 0.45C1.40204 0.698528 1.20057 0.9 0.952037 0.9H0.45C0.201472 0.9 0 0.698528 0 0.45ZM2.51019 0.45C2.51019 0.201472 2.71166 0 2.96019 0H3.96426C4.21279 0 4.41426 0.201472 4.41426 0.45C4.41426 0.698528 4.21279 0.9 3.96426 0.9H2.96019C2.71166 0.9 2.51019 0.698528 2.51019 0.45ZM5.52241 0.45C5.52241 0.201472 5.72388 0 5.97241 0H6.97648C7.22501 0 7.42648 0.201472 7.42648 0.45C7.42648 0.698528 7.22501 0.9 6.97648 0.9H5.97241C5.72388 0.9 5.52241 0.698528 5.52241 0.45ZM8.53463 0.45C8.53463 0.201472 8.7361 0 8.98463 0H9.9887C10.2372 0 10.4387 0.201472 10.4387 0.45C10.4387 0.698528 10.2372 0.9 9.9887 0.9H8.98463C8.7361 0.9 8.53463 0.698528 8.53463 0.45ZM11.5469 0.45C11.5469 0.201472 11.7483 0 11.9969 0H13.0009C13.2495 0 13.4509 0.201472 13.4509 0.45C13.4509 0.698528 13.2495 0.9 13.0009 0.9H11.9969C11.7483 0.9 11.5469 0.698528 11.5469 0.45ZM14.5591 0.45C14.5591 0.201472 14.7605 0 15.0091 0H16.0131C16.2617 0 16.4631 0.201472 16.4631 0.45C16.4631 0.698528 16.2617 0.9 16.0131 0.9H15.0091C14.7605 0.9 14.5591 0.698528 14.5591 0.45ZM17.5713 0.45C17.5713 0.201472 17.7728 0 18.0213 0H19.0254C19.2739 0 19.4754 0.201472 19.4754 0.45C19.4754 0.698528 19.2739 0.9 19.0254 0.9H18.0213C17.7728 0.9 17.5713 0.698528 17.5713 0.45ZM20.5835 0.45C20.5835 0.201472 20.785 0 21.0335 0H22.0376C22.2861 0 22.4876 0.201472 22.4876 0.45C22.4876 0.698528 22.2861 0.9 22.0376 0.9H21.0335C20.785 0.9 20.5835 0.698528 20.5835 0.45ZM23.5957 0.45C23.5957 0.201472 23.7972 0 24.0457 0H25.0498C25.2983 0 25.4998 0.201472 25.4998 0.45C25.4998 0.698528 25.2983 0.9 25.0498 0.9H24.0457C23.7972 0.9 23.5957 0.698528 23.5957 0.45ZM26.608 0.45C26.608 0.201472 26.8094 0 27.058 0H28.062C28.3106 0 28.512 0.201472 28.512 0.45C28.512 0.698528 28.3106 0.9 28.062 0.9H27.058C26.8094 0.9 26.608 0.698528 26.608 0.45ZM29.6202 0.45C29.6202 0.201472 29.8217 0 30.0702 0H31.0743C31.3228 0 31.5243 0.201472 31.5243 0.45C31.5243 0.698528 31.3228 0.9 31.0743 0.9H30.0702C29.8217 0.9 29.6202 0.698528 29.6202 0.45ZM32.6324 0.45C32.6324 0.201472 32.8339 0 33.0824 0H34.0865C34.335 0 34.5365 0.201472 34.5365 0.45C34.5365 0.698528 34.335 0.9 34.0865 0.9H33.0824C32.8339 0.9 32.6324 0.698528 32.6324 0.45ZM35.6446 0.45C35.6446 0.201472 35.8461 0 36.0946 0H37.0987C37.3472 0 37.5487 0.201472 37.5487 0.45C37.5487 0.698528 37.3472 0.9 37.0987 0.9H36.0946C35.8461 0.9 35.6446 0.698528 35.6446 0.45ZM38.6568 0.45C38.6568 0.201472 38.8583 0 39.1068 0H40.1109C40.3595 0 40.5609 0.201472 40.5609 0.45C40.5609 0.698528 40.3595 0.9 40.1109 0.9H39.1068C38.8583 0.9 38.6568 0.698528 38.6568 0.45ZM41.6691 0.45C41.6691 0.201472 41.8705 0 42.1191 0H43.1231C43.3717 0 43.5732 0.201472 43.5732 0.45C43.5732 0.698528 43.3717 0.9 43.1231 0.9H42.1191C41.8705 0.9 41.6691 0.698528 41.6691 0.45ZM44.6813 0.45C44.6813 0.201472 44.8828 0 45.1313 0H46.1354C46.3839 0 46.5854 0.201472 46.5854 0.45C46.5854 0.698528 46.3839 0.9 46.1354 0.9H45.1313C44.8828 0.9 44.6813 0.698528 44.6813 0.45ZM47.6935 0.45C47.6935 0.201472 47.895 0 48.1435 0H49.1476C49.3961 0 49.5976 0.201472 49.5976 0.45C49.5976 0.698528 49.3961 0.9 49.1476 0.9H48.1435C47.895 0.9 47.6935 0.698528 47.6935 0.45ZM50.7057 0.45C50.7057 0.201472 50.9072 0 51.1557 0H52.1598C52.4083 0 52.6098 0.201472 52.6098 0.45C52.6098 0.698528 52.4083 0.9 52.1598 0.9H51.1557C50.9072 0.9 50.7057 0.698528 50.7057 0.45ZM53.718 0.45C53.718 0.201472 53.9194 0 54.168 0H55.172C55.4206 0 55.622 0.201472 55.622 0.45C55.622 0.698528 55.4206 0.9 55.172 0.9H54.168C53.9194 0.9 53.718 0.698528 53.718 0.45ZM56.7302 0.45C56.7302 0.201472 56.9317 0 57.1802 0H58.1843C58.4328 0 58.6343 0.201472 58.6343 0.45C58.6343 0.698528 58.4328 0.9 58.1843 0.9H57.1802C56.9317 0.9 56.7302 0.698528 56.7302 0.45ZM59.7424 0.45C59.7424 0.201472 59.9439 0 60.1924 0H61.1965C61.445 0 61.6465 0.201472 61.6465 0.45C61.6465 0.698528 61.445 0.9 61.1965 0.9H60.1924C59.9439 0.9 59.7424 0.698528 59.7424 0.45ZM62.7546 0.45C62.7546 0.201472 62.9561 0 63.2046 0H64.2087C64.4572 0 64.6587 0.201472 64.6587 0.45C64.6587 0.698528 64.4572 0.9 64.2087 0.9H63.2046C62.9561 0.9 62.7546 0.698528 62.7546 0.45ZM65.7668 0.45C65.7668 0.201472 65.9683 0 66.2169 0H67.2209C67.4695 0 67.6709 0.201472 67.6709 0.45C67.6709 0.698528 67.4695 0.9 67.2209 0.9H66.2169C65.9683 0.9 65.7668 0.698528 65.7668 0.45ZM68.7791 0.45C68.7791 0.201472 68.9805 0 69.2291 0H70.2331C70.4817 0 70.6831 0.201472 70.6831 0.45C70.6831 0.698528 70.4817 0.9 70.2331 0.9H69.2291C68.9805 0.9 68.7791 0.698528 68.7791 0.45ZM71.7913 0.45C71.7913 0.201472 71.9928 0 72.2413 0H73.2454C73.4939 0 73.6954 0.201472 73.6954 0.45C73.6954 0.698528 73.4939 0.9 73.2454 0.9H72.2413C71.9928 0.9 71.7913 0.698528 71.7913 0.45ZM74.8035 0.45C74.8035 0.201472 75.005 0 75.2535 0H76.2576C76.5061 0 76.7076 0.201472 76.7076 0.45C76.7076 0.698528 76.5061 0.9 76.2576 0.9H75.2535C75.005 0.9 74.8035 0.698528 74.8035 0.45ZM77.8157 0.45C77.8157 0.201472 78.0172 0 78.2657 0H79.2698C79.5183 0 79.7198 0.201472 79.7198 0.45C79.7198 0.698528 79.5183 0.9 79.2698 0.9H78.2657C78.0172 0.9 77.8157 0.698528 77.8157 0.45ZM80.828 0.45C80.828 0.201472 81.0294 0 81.278 0H82.282C82.5306 0 82.732 0.201472 82.732 0.45C82.732 0.698528 82.5306 0.9 82.282 0.9H81.278C81.0294 0.9 80.828 0.698528 80.828 0.45ZM83.8402 0.45C83.8402 0.201472 84.0417 0 84.2902 0H85.2943C85.5428 0 85.7443 0.201472 85.7443 0.45C85.7443 0.698528 85.5428 0.9 85.2943 0.9H84.2902C84.0417 0.9 83.8402 0.698528 83.8402 0.45ZM86.8524 0.45C86.8524 0.201472 87.0539 0 87.3024 0H88.3065C88.555 0 88.7565 0.201472 88.7565 0.45C88.7565 0.698528 88.555 0.9 88.3065 0.9H87.3024C87.0539 0.9 86.8524 0.698528 86.8524 0.45ZM89.8646 0.45C89.8646 0.201472 90.0661 0 90.3146 0H91.3187C91.5672 0 91.7687 0.201472 91.7687 0.45C91.7687 0.698528 91.5672 0.9 91.3187 0.9H90.3146C90.0661 0.9 89.8646 0.698528 89.8646 0.45ZM92.8768 0.45C92.8768 0.201472 93.0783 0 93.3269 0H94.3309C94.5795 0 94.7809 0.201472 94.7809 0.45C94.7809 0.698528 94.5795 0.9 94.3309 0.9H93.3269C93.0783 0.9 92.8768 0.698528 92.8768 0.45ZM95.8891 0.45C95.8891 0.201472 96.0905 0 96.3391 0H97.3431C97.5917 0 97.7931 0.201472 97.7931 0.45C97.7931 0.698528 97.5917 0.9 97.3431 0.9H96.3391C96.0905 0.9 95.8891 0.698528 95.8891 0.45ZM98.9013 0.45C98.9013 0.201472 99.1028 0 99.3513 0H100.355C100.604 0 100.805 0.201472 100.805 0.45C100.805 0.698528 100.604 0.9 100.355 0.9H99.3513C99.1028 0.9 98.9013 0.698528 98.9013 0.45ZM101.914 0.45C101.914 0.201472 102.115 0 102.364 0H103.368C103.616 0 103.818 0.201472 103.818 0.45C103.818 0.698528 103.616 0.9 103.368 0.9H102.364C102.115 0.9 101.914 0.698528 101.914 0.45ZM104.926 0.45C104.926 0.201472 105.127 0 105.376 0H106.38C106.628 0 106.83 0.201472 106.83 0.45C106.83 0.698528 106.628 0.9 106.38 0.9H105.376C105.127 0.9 104.926 0.698528 104.926 0.45ZM107.938 0.45C107.938 0.201472 108.139 0 108.388 0H109.392C109.641 0 109.842 0.201472 109.842 0.45C109.842 0.698528 109.641 0.9 109.392 0.9H108.388C108.139 0.9 107.938 0.698528 107.938 0.45ZM110.95 0.45C110.95 0.201472 111.152 0 111.4 0H112.404C112.653 0 112.854 0.201472 112.854 0.45C112.854 0.698528 112.653 0.9 112.404 0.9H111.4C111.152 0.9 110.95 0.698528 110.95 0.45ZM113.962 0.45C113.962 0.201472 114.164 0 114.412 0H115.416C115.665 0 115.866 0.201472 115.866 0.45C115.866 0.698528 115.665 0.9 115.416 0.9H114.412C114.164 0.9 113.962 0.698528 113.962 0.45ZM116.975 0.45C116.975 0.201472 117.176 0 117.425 0H118.429C118.677 0 118.879 0.201472 118.879 0.45C118.879 0.698528 118.677 0.9 118.429 0.9H117.425C117.176 0.9 116.975 0.698528 116.975 0.45ZM119.987 0.45C119.987 0.201472 120.188 0 120.437 0H121.441C121.689 0 121.891 0.201472 121.891 0.45C121.891 0.698528 121.689 0.9 121.441 0.9H120.437C120.188 0.9 119.987 0.698528 119.987 0.45ZM122.999 0.45C122.999 0.201472 123.201 0 123.449 0H124.453C124.702 0 124.903 0.201472 124.903 0.45C124.903 0.698528 124.702 0.9 124.453 0.9H123.449C123.201 0.9 122.999 0.698528 122.999 0.45ZM126.011 0.45C126.011 0.201472 126.213 0 126.461 0H127.465C127.714 0 127.915 0.201472 127.915 0.45C127.915 0.698528 127.714 0.9 127.465 0.9H126.461C126.213 0.9 126.011 0.698528 126.011 0.45ZM129.024 0.45C129.024 0.201472 129.225 0 129.474 0H130.478C130.726 0 130.928 0.201472 130.928 0.45C130.928 0.698528 130.726 0.9 130.478 0.9H129.474C129.225 0.9 129.024 0.698528 129.024 0.45ZM132.036 0.45C132.036 0.201472 132.237 0 132.486 0H133.49C133.738 0 133.94 0.201472 133.94 0.45C133.94 0.698528 133.738 0.9 133.49 0.9H132.486C132.237 0.9 132.036 0.698528 132.036 0.45ZM135.048 0.45C135.048 0.201472 135.249 0 135.498 0H136.502C136.751 0 136.952 0.201472 136.952 0.45C136.952 0.698528 136.751 0.9 136.502 0.9H135.498C135.249 0.9 135.048 0.698528 135.048 0.45ZM138.06 0.45C138.06 0.201472 138.262 0 138.51 0H139.514C139.763 0 139.964 0.201472 139.964 0.45C139.964 0.698528 139.763 0.9 139.514 0.9H138.51C138.262 0.9 138.06 0.698528 138.06 0.45ZM141.072 0.45C141.072 0.201472 141.274 0 141.522 0H142.526C142.775 0 142.976 0.201472 142.976 0.45C142.976 0.698528 142.775 0.9 142.526 0.9H141.522C141.274 0.9 141.072 0.698528 141.072 0.45ZM144.085 0.45C144.085 0.201472 144.286 0 144.535 0H145.539C145.787 0 145.989 0.201472 145.989 0.45C145.989 0.698528 145.787 0.9 145.539 0.9H144.535C144.286 0.9 144.085 0.698528 144.085 0.45ZM147.097 0.45C147.097 0.201472 147.298 0 147.547 0H148.551C148.799 0 149.001 0.201472 149.001 0.45C149.001 0.698528 148.799 0.9 148.551 0.9H147.547C147.298 0.9 147.097 0.698528 147.097 0.45ZM150.109 0.45C150.109 0.201472 150.311 0 150.559 0H151.563C151.812 0 152.013 0.201472 152.013 0.45C152.013 0.698528 151.812 0.9 151.563 0.9H150.559C150.311 0.9 150.109 0.698528 150.109 0.45ZM153.121 0.45C153.121 0.201472 153.323 0 153.571 0H154.575C154.824 0 155.025 0.201472 155.025 0.45C155.025 0.698528 154.824 0.9 154.575 0.9H153.571C153.323 0.9 153.121 0.698528 153.121 0.45ZM156.134 0.45C156.134 0.201472 156.335 0 156.584 0H157.588C157.836 0 158.038 0.201472 158.038 0.45C158.038 0.698528 157.836 0.9 157.588 0.9H156.584C156.335 0.9 156.134 0.698528 156.134 0.45ZM159.146 0.45C159.146 0.201472 159.347 0 159.596 0H160.6C160.848 0 161.05 0.201472 161.05 0.45C161.05 0.698528 160.848 0.9 160.6 0.9H159.596C159.347 0.9 159.146 0.698528 159.146 0.45ZM162.158 0.45C162.158 0.201472 162.359 0 162.608 0H163.612C163.861 0 164.062 0.201472 164.062 0.45C164.062 0.698528 163.861 0.9 163.612 0.9H162.608C162.359 0.9 162.158 0.698528 162.158 0.45ZM165.17 0.45C165.17 0.201472 165.372 0 165.62 0H166.624C166.873 0 167.074 0.201472 167.074 0.45C167.074 0.698528 166.873 0.9 166.624 0.9H165.62C165.372 0.9 165.17 0.698528 165.17 0.45ZM168.182 0.45C168.182 0.201472 168.384 0 168.632 0H169.636C169.885 0 170.086 0.201472 170.086 0.45C170.086 0.698528 169.885 0.9 169.636 0.9H168.632C168.384 0.9 168.182 0.698528 168.182 0.45ZM171.195 0.45C171.195 0.201472 171.396 0 171.645 0H172.649C172.897 0 173.099 0.201472 173.099 0.45C173.099 0.698528 172.897 0.9 172.649 0.9H171.645C171.396 0.9 171.195 0.698528 171.195 0.45ZM174.207 0.45C174.207 0.201472 174.408 0 174.657 0H175.661C175.909 0 176.111 0.201472 176.111 0.45C176.111 0.698528 175.909 0.9 175.661 0.9H174.657C174.408 0.9 174.207 0.698528 174.207 0.45ZM177.219 0.45C177.219 0.201472 177.421 0 177.669 0H178.673C178.922 0 179.123 0.201472 179.123 0.45C179.123 0.698528 178.922 0.9 178.673 0.9H177.669C177.421 0.9 177.219 0.698528 177.219 0.45ZM180.231 0.45C180.231 0.201472 180.433 0 180.681 0H181.685C181.934 0 182.135 0.201472 182.135 0.45C182.135 0.698528 181.934 0.9 181.685 0.9H180.681C180.433 0.9 180.231 0.698528 180.231 0.45ZM183.244 0.45C183.244 0.201472 183.445 0 183.694 0H184.698C184.946 0 185.148 0.201472 185.148 0.45C185.148 0.698528 184.946 0.9 184.698 0.9H183.694C183.445 0.9 183.244 0.698528 183.244 0.45ZM186.256 0.45C186.256 0.201472 186.457 0 186.706 0H187.71C187.958 0 188.16 0.201472 188.16 0.45C188.16 0.698528 187.958 0.9 187.71 0.9H186.706C186.457 0.9 186.256 0.698528 186.256 0.45ZM189.268 0.45C189.268 0.201472 189.469 0 189.718 0H190.722C190.971 0 191.172 0.201472 191.172 0.45C191.172 0.698528 190.971 0.9 190.722 0.9H189.718C189.469 0.9 189.268 0.698528 189.268 0.45ZM192.28 0.45C192.28 0.201472 192.482 0 192.73 0H193.734C193.983 0 194.184 0.201472 194.184 0.45C194.184 0.698528 193.983 0.9 193.734 0.9H192.73C192.482 0.9 192.28 0.698528 192.28 0.45ZM195.292 0.45C195.292 0.201472 195.494 0 195.742 0H196.746C196.995 0 197.196 0.201472 197.196 0.45C197.196 0.698528 196.995 0.9 196.746 0.9H195.742C195.494 0.9 195.292 0.698528 195.292 0.45ZM198.305 0.45C198.305 0.201472 198.506 0 198.755 0H199.759C200.007 0 200.209 0.201472 200.209 0.45C200.209 0.698528 200.007 0.9 199.759 0.9H198.755C198.506 0.9 198.305 0.698528 198.305 0.45ZM201.317 0.45C201.317 0.201472 201.518 0 201.767 0H202.771C203.019 0 203.221 0.201472 203.221 0.45C203.221 0.698528 203.019 0.9 202.771 0.9H201.767C201.518 0.9 201.317 0.698528 201.317 0.45ZM204.329 0.45C204.329 0.201472 204.531 0 204.779 0H205.783C206.032 0 206.233 0.201472 206.233 0.45C206.233 0.698528 206.032 0.9 205.783 0.9H204.779C204.531 0.9 204.329 0.698528 204.329 0.45ZM207.341 0.45C207.341 0.201472 207.543 0 207.791 0H208.795C209.044 0 209.245 0.201472 209.245 0.45C209.245 0.698528 209.044 0.9 208.795 0.9H207.791C207.543 0.9 207.341 0.698528 207.341 0.45ZM210.354 0.45C210.354 0.201472 210.555 0 210.804 0H211.808C212.056 0 212.258 0.201472 212.258 0.45C212.258 0.698528 212.056 0.9 211.808 0.9H210.804C210.555 0.9 210.354 0.698528 210.354 0.45ZM213.366 0.45C213.366 0.201472 213.567 0 213.816 0H214.82C215.068 0 215.27 0.201472 215.27 0.45C215.27 0.698528 215.068 0.9 214.82 0.9H213.816C213.567 0.9 213.366 0.698528 213.366 0.45ZM216.378 0.45C216.378 0.201472 216.579 0 216.828 0H217.832C218.081 0 218.282 0.201472 218.282 0.45C218.282 0.698528 218.081 0.9 217.832 0.9H216.828C216.579 0.9 216.378 0.698528 216.378 0.45ZM219.39 0.45C219.39 0.201472 219.592 0 219.84 0H220.844C221.093 0 221.294 0.201472 221.294 0.45C221.294 0.698528 221.093 0.9 220.844 0.9H219.84C219.592 0.9 219.39 0.698528 219.39 0.45ZM222.402 0.45C222.402 0.201472 222.604 0 222.852 0H223.856C224.105 0 224.306 0.201472 224.306 0.45C224.306 0.698528 224.105 0.9 223.856 0.9H222.852C222.604 0.9 222.402 0.698528 222.402 0.45ZM225.415 0.45C225.415 0.201472 225.616 0 225.865 0H226.869C227.117 0 227.319 0.201472 227.319 0.45C227.319 0.698528 227.117 0.9 226.869 0.9H225.865C225.616 0.9 225.415 0.698528 225.415 0.45ZM228.427 0.45C228.427 0.201472 228.628 0 228.877 0H229.881C230.129 0 230.331 0.201472 230.331 0.45C230.331 0.698528 230.129 0.9 229.881 0.9H228.877C228.628 0.9 228.427 0.698528 228.427 0.45ZM231.439 0.45C231.439 0.201472 231.641 0 231.889 0H232.893C233.142 0 233.343 0.201472 233.343 0.45C233.343 0.698528 233.142 0.9 232.893 0.9H231.889C231.641 0.9 231.439 0.698528 231.439 0.45ZM234.451 0.45C234.451 0.201472 234.653 0 234.901 0H235.905C236.154 0 236.355 0.201472 236.355 0.45C236.355 0.698528 236.154 0.9 235.905 0.9H234.901C234.653 0.9 234.451 0.698528 234.451 0.45ZM237.464 0.45C237.464 0.201472 237.665 0 237.914 0H238.918C239.166 0 239.368 0.201472 239.368 0.45C239.368 0.698528 239.166 0.9 238.918 0.9H237.914C237.665 0.9 237.464 0.698528 237.464 0.45ZM240.476 0.45C240.476 0.201472 240.677 0 240.926 0H241.93C242.178 0 242.38 0.201472 242.38 0.45C242.38 0.698528 242.178 0.9 241.93 0.9H240.926C240.677 0.9 240.476 0.698528 240.476 0.45ZM243.488 0.45C243.488 0.201472 243.689 0 243.938 0H244.942C245.191 0 245.392 0.201472 245.392 0.45C245.392 0.698528 245.191 0.9 244.942 0.9H243.938C243.689 0.9 243.488 0.698528 243.488 0.45ZM246.5 0.45C246.5 0.201472 246.702 0 246.95 0H247.954C248.203 0 248.404 0.201472 248.404 0.45C248.404 0.698528 248.203 0.9 247.954 0.9H246.95C246.702 0.9 246.5 0.698528 246.5 0.45ZM249.512 0.45C249.512 0.201472 249.714 0 249.962 0H250.966C251.215 0 251.417 0.201472 251.417 0.45C251.417 0.698528 251.215 0.9 250.966 0.9H249.962C249.714 0.9 249.512 0.698528 249.512 0.45ZM252.525 0.45C252.525 0.201472 252.726 0 252.975 0H253.979C254.227 0 254.429 0.201472 254.429 0.45C254.429 0.698528 254.227 0.9 253.979 0.9H252.975C252.726 0.9 252.525 0.698528 252.525 0.45ZM255.537 0.45C255.537 0.201472 255.738 0 255.987 0H256.991C257.239 0 257.441 0.201472 257.441 0.45C257.441 0.698528 257.239 0.9 256.991 0.9H255.987C255.738 0.9 255.537 0.698528 255.537 0.45ZM258.549 0.45C258.549 0.201472 258.751 0 258.999 0H260.003C260.252 0 260.453 0.201472 260.453 0.45C260.453 0.698528 260.252 0.9 260.003 0.9H258.999C258.751 0.9 258.549 0.698528 258.549 0.45ZM261.561 0.45C261.561 0.201472 261.763 0 262.011 0H263.015C263.264 0 263.465 0.201472 263.465 0.45C263.465 0.698528 263.264 0.9 263.015 0.9H262.011C261.763 0.9 261.561 0.698528 261.561 0.45ZM264.574 0.45C264.574 0.201472 264.775 0 265.023 0H266.028C266.276 0 266.478 0.201472 266.478 0.45C266.478 0.698528 266.276 0.9 266.028 0.9H265.023C264.775 0.9 264.574 0.698528 264.574 0.45ZM267.586 0.45C267.586 0.201472 267.787 0 268.036 0H269.04C269.288 0 269.49 0.201472 269.49 0.45C269.49 0.698528 269.288 0.9 269.04 0.9H268.036C267.787 0.9 267.586 0.698528 267.586 0.45ZM270.598 0.45C270.598 0.201472 270.799 0 271.048 0H271.55C271.799 0 272 0.201472 272 0.45C272 0.698528 271.799 0.9 271.55 0.9H271.048C270.799 0.9 270.598 0.698528 270.598 0.45Z" fill="#313232"/>
</svg>
