<svg width="28" height="28" viewBox="0 0 28 28" fill="none" xmlns="http://www.w3.org/2000/svg">
<g clip-path="url(#clip0_543_11824)">
<path d="M24.5 25.6667H3.5C3.02167 25.6667 2.625 25.27 2.625 24.7917C2.625 24.3133 3.02167 23.9167 3.5 23.9167H24.5C24.9783 23.9167 25.375 24.3133 25.375 24.7917C25.375 25.27 24.9783 25.6667 24.5 25.6667Z" fill="#78F5B6"/>
<path d="M22.19 4.06001C19.9267 1.79667 17.71 1.73834 15.3883 4.06001L13.9767 5.47167C13.86 5.58834 13.8133 5.77501 13.86 5.93834C14.7467 9.03001 17.22 11.5033 20.3117 12.39C20.3583 12.4017 20.405 12.4133 20.4517 12.4133C20.58 12.4133 20.6967 12.3667 20.79 12.2733L22.19 10.8617C23.345 9.71834 23.905 8.61001 23.905 7.49001C23.9167 6.33501 23.3567 5.21501 22.19 4.06001Z" fill="#78F5B6"/>
<path d="M18.2117 13.4517C17.8733 13.2883 17.5467 13.125 17.2317 12.9383C16.975 12.7867 16.73 12.6233 16.485 12.4483C16.2867 12.32 16.0533 12.1333 15.8317 11.9467C15.8083 11.935 15.7267 11.865 15.6333 11.7717C15.2483 11.445 14.8167 11.025 14.4317 10.5583C14.3967 10.535 14.3383 10.4533 14.2567 10.3483C14.14 10.2083 13.9417 9.975 13.7667 9.70667C13.6267 9.53167 13.4633 9.275 13.3117 9.01833C13.125 8.70333 12.9617 8.38833 12.7983 8.06167C12.7548 7.96834 12.7137 7.87584 12.6747 7.78439C12.5316 7.44911 12.0962 7.35211 11.8385 7.60986L5.06332 14.385C4.91165 14.5367 4.77165 14.8283 4.73665 15.0267L4.10665 19.495C3.98999 20.2883 4.21165 21.035 4.70165 21.5367C5.12165 21.945 5.70499 22.1667 6.33499 22.1667C6.47499 22.1667 6.61499 22.155 6.75499 22.1317L11.235 21.5017C11.445 21.4667 11.7367 21.3267 11.8767 21.175L18.6446 14.407C18.9042 14.1475 18.8059 13.7029 18.4675 13.5609C18.3839 13.5258 18.2989 13.4895 18.2117 13.4517Z" fill="#78F5B6"/>
</g>
<defs>
<clipPath id="clip0_543_11824">
<rect width="28" height="28" fill="white"/>
</clipPath>
</defs>
</svg>
