<svg width="24" height="24" viewBox="0 0 24 24" fill="none" xmlns="http://www.w3.org/2000/svg">
<path d="M12.0185 5.98047C9.54257 5.98047 7.53041 7.7738 7.53041 9.98047V11.9071C7.53041 12.3138 7.33593 12.9338 7.10404 13.2805L6.24383 14.5538C5.71274 15.3405 6.07926 16.2138 7.05168 16.5071C10.2756 17.4671 13.7539 17.4671 16.9778 16.5071C17.8829 16.2405 18.2794 15.2871 17.7857 14.5538L16.9255 13.2805C16.7011 12.9338 16.5066 12.3138 16.5066 11.9071V9.98047C16.5066 7.78047 14.4869 5.98047 12.0185 5.98047Z" stroke="#626363" stroke-width="1.5" stroke-miterlimit="10" stroke-linecap="round"/>
<path d="M13.246 5.90641C13.0393 5.84641 12.826 5.79974 12.606 5.77307C11.966 5.69307 11.3526 5.73974 10.7793 5.90641C10.9726 5.41307 11.4526 5.06641 12.0126 5.06641C12.5726 5.06641 13.0526 5.41307 13.246 5.90641Z" stroke="#626363" stroke-width="1.5" stroke-miterlimit="10" stroke-linecap="round" stroke-linejoin="round"/>
<path d="M14.0137 16.7461C14.0137 17.8461 13.1137 18.7461 12.0137 18.7461C11.467 18.7461 10.9603 18.5194 10.6003 18.1594C10.2403 17.7994 10.0137 17.2928 10.0137 16.7461" stroke="#626363" stroke-width="1.5" stroke-miterlimit="10"/>
</svg>
