<svg width="24" height="25" viewBox="0 0 24 25" fill="none" xmlns="http://www.w3.org/2000/svg">
<g clip-path="url(#clip0_2092_13449)">
<path d="M16.75 4.06V2.5C16.75 2.09 16.41 1.75 16 1.75C15.59 1.75 15.25 2.09 15.25 2.5V4H8.74999V2.5C8.74999 2.09 8.40999 1.75 7.99999 1.75C7.58999 1.75 7.24999 2.09 7.24999 2.5V4.06C4.54999 4.31 3.23999 5.92 3.03999 8.31C3.01999 8.6 3.25999 8.84 3.53999 8.84H20.46C20.75 8.84 20.99 8.59 20.96 8.31C20.76 5.92 19.45 4.31 16.75 4.06Z" fill="black"/>
<path d="M20 10.34H4C3.45 10.34 3 10.79 3 11.34V17.5C3 20.5 4.5 22.5 8 22.5H16C19.5 22.5 21 20.5 21 17.5V11.34C21 10.79 20.55 10.34 20 10.34ZM9.21 18.71C9.16 18.75 9.11 18.8 9.06 18.83C9 18.87 8.94 18.9 8.88 18.92C8.82 18.95 8.76 18.97 8.7 18.98C8.63 18.99 8.57 19 8.5 19C8.37 19 8.24 18.97 8.12 18.92C7.99 18.87 7.89 18.8 7.79 18.71C7.61 18.52 7.5 18.26 7.5 18C7.5 17.74 7.61 17.48 7.79 17.29C7.89 17.2 7.99 17.13 8.12 17.08C8.3 17 8.5 16.98 8.7 17.02C8.76 17.03 8.82 17.05 8.88 17.08C8.94 17.1 9 17.13 9.06 17.17C9.11 17.21 9.16 17.25 9.21 17.29C9.39 17.48 9.5 17.74 9.5 18C9.5 18.26 9.39 18.52 9.21 18.71ZM9.21 15.21C9.02 15.39 8.76 15.5 8.5 15.5C8.24 15.5 7.98 15.39 7.79 15.21C7.61 15.02 7.5 14.76 7.5 14.5C7.5 14.24 7.61 13.98 7.79 13.79C8.07 13.51 8.51 13.42 8.88 13.58C9.01 13.63 9.12 13.7 9.21 13.79C9.39 13.98 9.5 14.24 9.5 14.5C9.5 14.76 9.39 15.02 9.21 15.21ZM12.71 18.71C12.52 18.89 12.26 19 12 19C11.74 19 11.48 18.89 11.29 18.71C11.11 18.52 11 18.26 11 18C11 17.74 11.11 17.48 11.29 17.29C11.66 16.92 12.34 16.92 12.71 17.29C12.89 17.48 13 17.74 13 18C13 18.26 12.89 18.52 12.71 18.71ZM12.71 15.21C12.66 15.25 12.61 15.29 12.56 15.33C12.5 15.37 12.44 15.4 12.38 15.42C12.32 15.45 12.26 15.47 12.2 15.48C12.13 15.49 12.07 15.5 12 15.5C11.74 15.5 11.48 15.39 11.29 15.21C11.11 15.02 11 14.76 11 14.5C11 14.24 11.11 13.98 11.29 13.79C11.38 13.7 11.49 13.63 11.62 13.58C11.99 13.42 12.43 13.51 12.71 13.79C12.89 13.98 13 14.24 13 14.5C13 14.76 12.89 15.02 12.71 15.21ZM16.21 18.71C16.02 18.89 15.76 19 15.5 19C15.24 19 14.98 18.89 14.79 18.71C14.61 18.52 14.5 18.26 14.5 18C14.5 17.74 14.61 17.48 14.79 17.29C15.16 16.92 15.84 16.92 16.21 17.29C16.39 17.48 16.5 17.74 16.5 18C16.5 18.26 16.39 18.52 16.21 18.71ZM16.21 15.21C16.16 15.25 16.11 15.29 16.06 15.33C16 15.37 15.94 15.4 15.88 15.42C15.82 15.45 15.76 15.47 15.7 15.48C15.63 15.49 15.56 15.5 15.5 15.5C15.24 15.5 14.98 15.39 14.79 15.21C14.61 15.02 14.5 14.76 14.5 14.5C14.5 14.24 14.61 13.98 14.79 13.79C14.89 13.7 14.99 13.63 15.12 13.58C15.3 13.5 15.5 13.48 15.7 13.52C15.76 13.53 15.82 13.55 15.88 13.58C15.94 13.6 16 13.63 16.06 13.67C16.11 13.71 16.16 13.75 16.21 13.79C16.39 13.98 16.5 14.24 16.5 14.5C16.5 14.76 16.39 15.02 16.21 15.21Z" fill="black"/>
</g>
<defs>
<clipPath id="clip0_2092_13449">
<rect width="24" height="24" fill="white" transform="translate(0 0.5)"/>
</clipPath>
</defs>
</svg>
