<svg width="24" height="24" viewBox="0 0 24 24" fill="none" xmlns="http://www.w3.org/2000/svg">
<path d="M7.43359 5.33203V18.6654V5.33203Z" fill="#40D2B6"/>
<path d="M7.43359 5.33203V18.6654" stroke="#40D2B6" stroke-width="1.5" stroke-miterlimit="10" stroke-linecap="round" stroke-linejoin="round"/>
<path d="M7.43359 6.66797H14.9003C16.7003 6.66797 17.1003 7.66797 15.8336 8.93464L15.0336 9.73464C14.5003 10.268 14.5003 11.1346 15.0336 11.6013L15.8336 12.4013C17.1003 13.668 16.6336 14.668 14.9003 14.668H7.43359" fill="#40D2B6"/>
<path d="M7.43359 6.66797H14.9003C16.7003 6.66797 17.1003 7.66797 15.8336 8.93464L15.0336 9.73464C14.5003 10.268 14.5003 11.1346 15.0336 11.6013L15.8336 12.4013C17.1003 13.668 16.6336 14.668 14.9003 14.668H7.43359" stroke="#40D2B6" stroke-width="1.5" stroke-miterlimit="10" stroke-linecap="round" stroke-linejoin="round"/>
</svg>
