<svg width="40" height="41" viewBox="0 0 40 41" fill="none" xmlns="http://www.w3.org/2000/svg">
<path d="M15.0002 37.1693H25.0002C33.3335 37.1693 36.6668 33.8359 36.6668 25.5026V15.5026C36.6668 7.16927 33.3335 3.83594 25.0002 3.83594H15.0002C6.66683 3.83594 3.3335 7.16927 3.3335 15.5026V25.5026C3.3335 33.8359 6.66683 37.1693 15.0002 37.1693Z" fill="#FF6347" stroke="#FF6347" stroke-width="3.6" stroke-linecap="round" stroke-linejoin="round"/>
<path fill-rule="evenodd" clip-rule="evenodd" d="M10.5393 11.0408C12.0021 9.57797 14.1679 9.04297 16.8748 9.04297H23.1248C25.8317 9.04297 27.9976 9.57797 29.4604 11.0408C30.9232 12.5036 31.4582 14.6694 31.4582 17.3763V23.6263C31.4582 26.3332 30.9232 28.499 29.4604 29.9618C27.9976 31.4246 25.8317 31.9596 23.1248 31.9596H16.8748C14.1679 31.9596 12.0021 31.4246 10.5393 29.9618C9.07651 28.499 8.5415 26.3332 8.5415 23.6263V17.3763C8.5415 14.6694 9.07651 12.5036 10.5393 11.0408ZM12.0124 12.5139C11.1315 13.3949 10.6248 14.8749 10.6248 17.3763V23.6263C10.6248 26.1277 11.1315 27.6077 12.0124 28.4887C12.8934 29.3696 14.3734 29.8763 16.8748 29.8763H23.1248C25.6263 29.8763 27.1063 29.3696 27.9872 28.4887C28.8682 27.6077 29.3748 26.1277 29.3748 23.6263V17.3763C29.3748 14.8749 28.8682 13.3949 27.9872 12.5139C27.1063 11.633 25.6263 11.1263 23.1248 11.1263H16.8748C14.3734 11.1263 12.8934 11.633 12.0124 12.5139Z" fill="#161718"/>
<path fill-rule="evenodd" clip-rule="evenodd" d="M23.1252 30.9173H16.8752C11.6668 30.9173 9.5835 28.834 9.5835 23.6257V17.3757C9.5835 12.1673 11.6668 10.084 16.8752 10.084H23.1252C28.3335 10.084 30.4168 12.1673 30.4168 17.3757V23.6257C30.4168 28.834 28.3335 30.9173 23.1252 30.9173ZM25.1631 18.2911C25.5702 17.8847 25.5708 17.2251 25.1644 16.818C24.7579 16.4108 24.0984 16.4102 23.6912 16.8167L18.5215 21.9772L16.3095 19.7652C15.9028 19.3584 15.2432 19.3584 14.8364 19.7652C14.4296 20.172 14.4296 20.8316 14.8364 21.2384L17.7843 24.1863C18.1909 24.5928 18.8499 24.5931 19.2568 24.1869L25.1631 18.2911Z" fill="#161718"/>
</svg>
